<svg width="218" height="123" viewBox="0 0 218 123" fill="none" xmlns="http://www.w3.org/2000/svg">
<g clip-path="url(#clip0_18058_5557)">
<path d="M48.9955 97.576C25.6919 79.5191 27.0652 77.4902 15.7521 62.234C8.17734 52.0191 10.7069 34.369 23.1728 29.49C38.5469 23.4726 59.6324 35.1402 72.5604 21.6882C81.8888 11.9814 90.2932 2.66398 104.82 0.406944C130.075 -3.51697 131.462 22.2812 150.835 22.9017C162.714 23.2823 174.537 17.5547 184.177 27.8261C198.021 42.5777 202.621 49.9032 189.205 79.1551C186.794 86.0903 150.835 90.924 150.835 90.924L48.9955 97.576Z" fill="#F4DCFF"/>
<path d="M88.104 77.0801C88.104 77.0801 89.1127 78.9064 87.5031 82.1523C85.8626 85.4593 86.1613 87.7693 86.1613 87.7693L84.6427 89.1964C84.6427 89.1964 84.3855 85.5216 85.8305 82.9264C87.6437 79.6805 88.104 77.0801 88.104 77.0801Z" fill="#95A6DB"/>
<path d="M92.5248 78.1084C92.5248 78.1084 92.7938 79.6216 90.9771 81.7244C89.1207 83.8651 88.8092 85.6134 88.8092 85.6134L87.5625 86.6028C87.5625 86.6028 88.1097 83.6585 89.6732 82.0044C91.6258 79.9347 92.5248 78.1084 92.5248 78.1084Z" fill="#95A6DB"/>
<path d="M84.8521 80.5391C84.8521 80.5391 83.4911 81.4761 82.6148 85.2854C81.9001 88.3898 82.606 90.0177 82.1562 91.9197L84.0849 89.8565C84.2063 88.5062 83.3394 87.6134 83.8504 84.7668C84.3288 82.1029 84.8521 80.5391 84.8521 80.5391Z" fill="#95A6DB"/>
<path d="M72.6307 92.0137C72.6307 92.0137 72.0239 93.5537 73.4252 97.1994C74.5669 100.174 76.1193 100.575 76.4163 101.261L77.0907 99.7637C76.2663 98.5945 75.3283 98.7312 74.1621 96.0843C73.0705 93.6002 72.6307 92.0137 72.6307 92.0137Z" fill="#95A6DB"/>
<path d="M81.6772 82.9072C81.6772 82.9072 80.7333 85.5955 80.5133 87.3107C80.1959 89.7488 81.1568 91.0589 81.0121 93.572L79.6551 95.201C79.6551 95.201 78.4761 92.5581 78.9883 89.5654C79.8471 84.5438 81.6772 82.9072 81.6772 82.9072Z" fill="#95A6DB"/>
<path d="M76.9949 84.1475C77.2569 85.7241 77.2866 87.3299 77.0825 88.9153C76.4296 93.714 78.954 97.3638 78.954 97.3638L77.9435 98.3183C77.9435 98.3183 74.8451 95.7685 75.5067 91.7538C76.2109 87.5126 76.9949 84.1475 76.9949 84.1475Z" fill="#95A6DB"/>
<path d="M83.9808 90.1969C83.9808 90.1969 85.1196 89.8023 89.8363 90.4343C92.8588 90.8406 91.982 89.6911 94.8318 90.5728C92.6576 90.7492 91.9061 92.327 89.0732 92.1123C86.8073 91.9388 84.5309 91.9435 82.2656 92.1245L83.9808 90.1969Z" fill="#95A6DB"/>
<path d="M93.1172 93.3221C93.1172 93.3221 91.2469 95.6379 87.0611 95.3102C84.4842 95.1153 81.8928 95.3446 79.3906 95.9883L80.6688 93.8919C80.6688 93.8919 82.4126 92.647 86.7326 93.4047C89.7003 93.9245 93.1172 93.3221 93.1172 93.3221Z" fill="#95A6DB"/>
<path d="M90.586 97.2762C90.586 97.2762 88.7157 99.592 84.5298 99.2644C81.953 99.0694 79.3615 99.2981 76.8594 99.9424L78.1376 97.846C78.1376 97.846 79.8813 96.6011 84.2014 97.3589C87.1697 97.878 90.586 97.2762 90.586 97.2762Z" fill="#95A6DB"/>
<path d="M96.1211 85.6934C96.1211 85.6934 94.7764 86.8917 92.1389 86.5862C89.464 86.2742 87.4922 86.8359 87.4922 86.8359L88.2506 86.0548C88.2506 86.0548 89.3526 85.2679 92.0835 85.7458C93.9614 86.0734 96.1211 85.6934 96.1211 85.6934Z" fill="#95A6DB"/>
<path d="M86.3533 88.1161C86.3533 88.1161 88.4167 87.9217 91.4451 88.2086C93.3563 88.3838 95.9069 87.2529 95.9069 87.2529C95.9069 87.2529 93.9275 89.9721 91.0712 89.5315C87.796 89.0252 84.5547 89.4442 84.5547 89.4442L86.3533 88.1161Z" fill="#95A6DB"/>
<path d="M88.0547 86.3685C88.0547 86.3685 89.785 83.7006 92.6641 83.1884C94.3676 82.8706 96.0063 82.2712 97.512 81.415C97.512 81.415 95.903 84.1703 93.2095 84.3559C90.7237 84.534 88.9887 86.1578 88.9887 86.1578L88.0547 86.3685Z" fill="#95A6DB"/>
<path d="M76.6493 101.312L76.2188 101.129C77.3488 98.4803 82.4196 89.884 88.7547 85.623L89.016 86.0101C82.7697 90.2122 77.7659 98.6968 76.6493 101.312Z" fill="#95A6DB"/>
<path d="M121.822 96.9664C123.151 95.1162 123.296 92.7602 122.258 89.8984C120.879 92.6153 120.733 94.9712 121.822 96.9664Z" fill="#95A6DB"/>
<path d="M119.882 93.016C120.824 91.1658 120.63 89.0234 119.298 86.5889C118.429 89.2271 118.624 91.3695 119.882 93.016Z" fill="#95A6DB"/>
<path d="M117.753 89.1123C118.379 87.2423 117.896 85.2565 116.304 83.1543C115.853 85.7536 116.336 87.7394 117.753 89.1123Z" fill="#95A6DB"/>
<path d="M112.977 81.0039C113.065 83.233 113.816 84.7916 115.231 85.6809C115.416 84.0187 114.664 82.4601 112.977 81.0039Z" fill="#95A6DB"/>
<path d="M110.023 80.2725C110.428 82.0953 111.277 83.2681 112.572 83.7907C112.48 82.398 111.63 81.2252 110.023 80.2725Z" fill="#95A6DB"/>
<path d="M111.12 83.9476C110.535 82.68 109.32 81.8879 107.477 81.5713C108.51 83.1293 109.724 83.9215 111.12 83.9476Z" fill="#95A6DB"/>
<path d="M114.117 95.0244C116.156 97.3262 118.318 98.3366 120.603 98.0537C119.358 96.1273 117.196 95.1175 114.117 95.0244Z" fill="#95A6DB"/>
<path d="M117.525 90.5911C116.028 89.4532 114.082 89.2786 111.688 90.0673C113.9 91.2656 115.846 91.4402 117.525 90.5911Z" fill="#95A6DB"/>
<path d="M110.555 87.6278C112.479 88.6731 114.172 88.825 115.634 88.0841C114.332 87.0929 112.639 86.941 110.555 87.6278Z" fill="#95A6DB"/>
<path d="M113.251 85.938C111.949 84.9503 110.255 84.7984 108.172 85.4817C110.098 86.527 111.791 86.6789 113.251 85.938Z" fill="#95A6DB"/>
<path d="M122.785 101.442C121.291 96.2044 121.17 96.6386 119.747 93.625C119.363 92.8102 118.959 92.0396 118.534 91.3132C117.644 89.8361 116.596 88.4596 115.409 87.2077C114.047 85.7125 112.882 84.7423 111.913 84.2971L111.818 84.197C111.802 84.1586 111.761 84.1376 111.721 84.1463C111.683 84.1312 111.641 84.1324 111.604 84.1492C111.573 84.1783 111.549 84.2139 111.534 84.2534C111.519 84.2913 111.52 84.3332 111.537 84.3698L111.575 84.4484C111.605 84.4787 111.64 84.5031 111.679 84.52L111.68 84.5392L111.767 84.5706C112.705 85.0258 113.836 85.9756 115.159 87.419C116.326 88.6657 117.352 90.0357 118.22 91.5047C118.663 92.2386 119.068 92.9947 119.433 93.7705L119.527 93.973C118.16 92.4202 116.098 91.8062 113.34 92.1321C115.464 93.9131 117.527 94.5265 119.527 93.973C120.908 96.9424 120.988 96.4198 122.443 101.527L122.785 101.442Z" fill="#95A6DB"/>
<path d="M96.0817 58.6698L98.6697 58.6901L96.3408 59.8175C96.0269 59.9694 95.8355 60.2947 95.856 60.6422L96.0823 64.4852L94.6314 60.9152C94.5007 60.5939 94.1898 60.382 93.8427 60.378L91.3125 60.3465L93.5842 59.2343C93.8963 59.0813 94.0859 58.7571 94.0655 58.4114L93.8392 54.5654L95.2889 58.1326C95.4202 58.455 95.7334 58.6674 96.0817 58.6698Z" fill="#FACB32"/>
<path d="M127.015 17.501L129.194 18.6482L126.731 18.5842C126.399 18.5754 126.095 18.7669 125.96 19.0696L124.465 22.4155L124.805 18.7652C124.836 18.4369 124.666 18.122 124.374 17.9667L122.25 16.8352L124.658 16.887C124.988 16.894 125.291 16.7025 125.425 16.4016L126.921 13.0527L126.581 16.7002C126.55 17.0308 126.722 17.3468 127.015 17.501Z" fill="#FACB32"/>
<path d="M86.5509 15.3929L88.1744 15.3888L86.7212 16.1111C86.5252 16.2083 86.4073 16.4137 86.4225 16.6314L86.5894 19.0403L85.6559 16.8101C85.5719 16.6093 85.3753 16.4789 85.1577 16.4783L83.5703 16.4748L84.988 15.7625C85.1828 15.6647 85.2995 15.4598 85.2843 15.2427L85.1175 12.832L86.0503 15.0606C86.1343 15.2625 86.3321 15.3935 86.5509 15.3929Z" fill="#FACB32"/>
<path d="M108.175 71.0445L109.73 72.0147L107.905 71.8337C107.659 71.8092 107.423 71.9349 107.306 72.1526L106.014 74.5569L106.465 71.8639C106.505 71.6218 106.396 71.3785 106.188 71.2476L104.672 70.2925L106.457 70.4613C106.702 70.4846 106.937 70.3589 107.054 70.1424L108.347 67.7363L107.896 70.427C107.855 70.6702 107.965 70.9141 108.175 71.0445Z" fill="#FACB32"/>
<path d="M173.02 28.3201L174.451 29.086L172.828 29.0324C172.61 29.0255 172.408 29.15 172.318 29.3491L171.317 31.5479L171.558 29.143C171.58 28.9265 171.47 28.7187 171.278 28.6146L169.883 27.8591L171.47 27.9039C171.687 27.9103 171.888 27.7852 171.978 27.5873L172.979 25.3867L172.738 27.7893C172.716 28.0081 172.827 28.217 173.02 28.3201Z" fill="#FACB32"/>
<path d="M44.6668 66.076L46.2863 65.9631L44.885 66.7814C44.696 66.892 44.5922 67.1044 44.6219 67.3209L44.9509 69.7136L43.8693 67.5514C43.7719 67.357 43.5671 67.2394 43.3495 67.2534L41.7656 67.357L43.1319 66.5509C43.3198 66.4403 43.4225 66.2279 43.3927 66.0126L43.0631 63.6182L44.1441 65.7786C44.2427 65.9736 44.4486 66.0911 44.6668 66.076Z" fill="#FACB32"/>
<path d="M95.3408 78.0927C94.7801 78.6521 93.8718 78.6521 93.3111 78.0927C92.7505 77.5334 92.7505 76.6272 93.3111 76.0679C93.8718 75.5086 94.7801 75.5086 95.3408 76.0679C95.9014 76.6267 95.9014 77.5334 95.3408 78.0927Z" fill="white"/>
<path d="M75.1354 24.146C75.9119 24.146 76.5443 24.7763 76.5443 25.5509C76.5443 26.3256 75.9124 26.9559 75.1354 26.9559C74.3583 26.9559 73.7265 26.3256 73.7265 25.5509C73.7265 24.7763 74.3583 24.146 75.1354 24.146ZM75.1354 23.5459C74.0252 23.5459 73.125 24.4439 73.125 25.5515C73.125 26.6591 74.0252 27.5571 75.1354 27.5571C76.2456 27.5571 77.1457 26.6591 77.1457 25.5515C77.1452 24.4434 76.2456 23.5459 75.1354 23.5459Z" fill="white"/>
<path d="M17.1722 37.3792C17.8694 37.3792 18.437 37.9449 18.437 38.641C18.437 39.3371 17.8694 39.9028 17.1722 39.9028C16.475 39.9028 15.9074 39.3365 15.9074 38.641C15.9074 37.9455 16.475 37.3792 17.1722 37.3792ZM17.1722 36.8408C16.1752 36.8408 15.3672 37.6469 15.3672 38.6416C15.3672 39.6362 16.1752 40.4423 17.1722 40.4423C18.1692 40.4423 18.9772 39.6362 18.9772 38.6416C18.9772 37.6469 18.1692 36.8408 17.1722 36.8408Z" fill="white"/>
</g>
<path d="M46.354 53.8715C43.0297 54.9702 36.5325 66.4035 36.8201 67.2735L44.3343 90.0076L45.288 92.893L49.6764 106.17C49.9644 107.041 61.1205 109.704 64.4449 108.605C67.7692 107.506 75.1411 98.7198 74.8532 97.8485L70.4648 84.5715L69.511 81.686L61.9973 58.9532C61.7093 58.082 49.6784 52.7727 46.354 53.8715Z" fill="url(#paint0_linear_18058_5557)"/>
<path d="M63.6328 56.793L68.3551 71.0802L70.0269 76.1383L76.4206 95.4824C79.8658 94.3437 86.1091 82.9943 85.8215 82.1243L81.9027 70.268L81.4114 68.7814L79.1431 61.9187C78.8563 61.047 67.078 55.6543 63.6328 56.793Z" fill="url(#paint1_linear_18058_5557)"/>
<path d="M24.8205 79.8753L26.3598 84.5325L27.5798 88.2234L31.4986 100.08C31.7865 100.951 43.5632 106.343 46.7436 105.292L40.3503 85.9489L37.9499 78.6864L33.9562 66.6035C30.7758 67.6547 24.5325 79.0041 24.8205 79.8753Z" fill="url(#paint2_linear_18058_5557)"/>
<path d="M63.7607 106.531C67.085 105.432 74.4569 96.6454 74.169 95.7742L74.8549 97.8493C75.1428 98.7206 67.7709 107.507 64.4466 108.606C61.1222 109.705 49.966 107.042 49.6781 106.171L48.9922 104.096C49.2802 104.967 60.4363 107.63 63.7607 106.531Z" fill="url(#paint3_linear_18058_5557)"/>
<path d="M85.1351 80.0492L85.821 82.1244C86.1089 82.9956 79.8652 94.3437 76.4201 95.4825L75.7342 93.4073C79.1781 92.269 85.4226 80.9192 85.1351 80.0492Z" fill="url(#paint4_linear_18058_5557)"/>
<path d="M46.0497 103.218L46.7356 105.293C43.5552 106.344 31.7781 100.951 31.4906 100.081L30.8047 98.0059C31.0923 98.8759 42.8693 104.269 46.0497 103.218Z" fill="url(#paint5_linear_18058_5557)"/>
<g opacity="0.49">
<g opacity="0.49">
<path opacity="0.49" d="M79.8442 63.9936L79.1583 61.9184C78.8703 61.0472 67.0936 55.6552 63.6484 56.7939L64.3343 58.8691C67.7779 57.7296 79.5562 63.1223 79.8442 63.9936Z" fill="white"/>
<path opacity="0.49" d="M34.6499 68.6787L33.964 66.6035C30.7836 67.6547 24.5403 79.0041 24.8279 79.8741L25.5138 81.9493C25.2262 81.0792 31.4695 69.7299 34.6499 68.6787Z" fill="white"/>
</g>
</g>
<path d="M58.1384 41.6753C57.5086 41.8835 57.1648 42.5635 57.3727 43.1922C57.475 43.5017 57.6921 43.7408 57.9611 43.879C57.0951 44.5559 55.5397 45.6782 53.8263 46.4865C53.5952 46.3033 53.4014 46.0241 53.286 45.6094C53.0311 44.6948 52.7314 43.7963 52.5025 43.1448C52.5607 43.1323 52.6172 43.1191 52.6734 43.1005C53.4739 42.8359 53.9089 41.973 53.6447 41.1737C53.3805 40.3743 52.517 39.9407 51.7164 40.2053C50.9146 40.4703 50.4809 41.3327 50.7451 42.1321C50.8743 42.5232 51.1474 42.825 51.4862 43.0023L48.8279 46.4112L43.1759 42.0036C43.7186 41.5323 43.9558 40.7672 43.7166 40.0434C43.3988 39.082 42.3604 38.5615 41.3975 38.8798C40.4346 39.198 39.9121 40.2344 40.2299 41.1958C40.4691 41.9197 41.1155 42.3926 41.831 42.4481L39.9215 49.3428L35.7732 48.1944C35.9384 47.8506 35.9774 47.4444 35.8485 47.0544C35.5843 46.2551 34.7208 45.8214 33.9202 46.086C33.1196 46.3506 32.6846 47.2135 32.9488 48.0128C33.213 48.8122 34.0766 49.2459 34.8771 48.9812C34.9333 48.9627 34.9878 48.9393 35.0407 48.915C35.2452 49.5746 35.54 50.4747 35.8803 51.3611C36.0356 51.7653 36.0451 52.1054 35.9687 52.3902C34.1132 52.7643 32.1945 52.7915 31.092 52.7653C31.2278 52.492 31.2592 52.1694 31.1561 51.8574C30.9483 51.2287 30.2682 50.8871 29.6385 51.0953C29.0075 51.3038 28.6661 51.983 28.874 52.6117C29.0818 53.2405 29.7611 53.5837 30.392 53.3751C30.4323 53.3618 30.4701 53.3412 30.5076 53.3234L34.7267 61.112L35.7686 64.2643C35.7686 64.2643 37.7579 64.5489 48.6963 60.9335C48.8439 60.8847 61.244 56.5185 61.244 56.5185L60.0007 52.757L58.7463 43.9858C58.7947 43.9765 58.8427 43.9701 58.8891 43.9548C59.52 43.7463 59.8626 43.0667 59.6544 42.4367C59.4462 41.8067 58.7681 41.4672 58.1384 41.6753Z" fill="url(#paint6_linear_18058_5557)"/>
<path d="M43.2256 41.9862C43.2089 42.0011 43.2027 42.0316 43.186 42.0466L49.6043 47.0443L51.8275 43.1669C51.4887 42.9896 51.6507 43.1563 51.5219 42.7664C51.2577 41.9671 51.6926 41.1042 52.4932 40.8396C52.863 40.7174 53.2445 40.7454 53.5757 40.8873C53.226 40.2635 52.4715 39.9547 51.7661 40.1879C50.9655 40.4525 50.5305 41.3153 50.7947 42.1147C50.924 42.5058 51.197 42.8076 51.5358 42.9848L48.8776 46.3937L43.2256 41.9862Z" fill="white"/>
<path d="M41.0136 41.8286C40.6958 40.8672 41.2179 39.8295 42.1808 39.5113C42.6592 39.3532 43.1548 39.4029 43.5724 39.6096C43.1315 38.9227 42.2664 38.5909 41.4537 38.8595C40.4908 39.1778 39.9683 40.2142 40.2861 41.1756C40.446 41.6594 40.7878 42.0302 41.2103 42.2393C41.1302 42.1158 41.0631 41.9785 41.0136 41.8286Z" fill="white"/>
<path d="M54.0531 46.3742C54.1703 46.7248 54.3496 46.9683 54.5572 47.1335C56.2706 46.3253 57.8272 45.2025 58.6924 44.5273C58.4233 44.3891 58.2062 44.15 58.1039 43.8405C57.8961 43.2117 58.2387 42.5322 58.8696 42.3236C59.1223 42.2401 59.3828 42.2459 59.6178 42.3223C59.37 41.7649 58.7344 41.4762 58.1425 41.6719C57.5116 41.8804 57.169 42.56 57.3768 43.1887C57.4791 43.4982 57.6962 43.7374 57.9652 43.8755C57.1379 44.522 55.6782 45.5776 54.0531 46.3742Z" fill="white"/>
<path d="M36.6094 52.0128C36.269 51.1265 35.9742 50.2264 35.7698 49.5668C35.7169 49.591 35.1386 48.9063 35.0353 48.9174C35.2041 49.4321 35.6637 50.7899 35.8823 51.3611C36.0375 51.7653 36.0471 52.1054 35.9706 52.3902C34.5266 52.6823 33.0463 52.7621 31.9405 52.7707C31.9621 52.996 31.9196 53.2196 31.8207 53.4159C32.9232 53.4421 34.841 53.4164 36.6973 53.0407C36.7754 52.7568 36.7646 52.417 36.6094 52.0128Z" fill="white"/>
<path d="M36.505 48.8461L40.6546 49.994L42.347 43.6712C42.4033 43.0511 42.0861 42.6032 41.8358 42.448L39.9262 49.3427L35.7783 48.1955C35.7539 48.3388 35.8729 48.4981 36.505 48.8461Z" fill="white"/>
<path d="M35.3479 61.5807L31.1577 53.9123C31.1199 53.9289 31.0678 53.9556 31.0263 53.9693C30.9579 53.9919 30.9433 53.9886 30.875 53.999L34.7412 61.0189L34.9732 61.7208C34.9732 61.7208 35.0029 61.7042 35.3479 61.5807Z" fill="white"/>
<path d="M29.6037 53.2754C29.3955 52.6455 29.7373 51.9675 30.3682 51.759C30.6208 51.6755 30.8813 51.6813 31.1164 51.7577C30.8685 51.2003 30.233 50.9116 29.6411 51.1072C29.0101 51.3158 28.6688 51.9949 28.8766 52.6237C29.0014 53.0014 29.2957 53.2732 29.6477 53.388C29.6315 53.3514 29.6166 53.3144 29.6037 53.2754Z" fill="white"/>
<path d="M33.793 48.9318C33.7461 48.8473 33.7058 48.7579 33.6743 48.6628C33.4101 47.8635 33.8451 47.0006 34.6457 46.736C35.0155 46.6138 35.397 46.6418 35.7282 46.7837C35.3773 46.1604 34.624 45.8511 33.9186 46.0843C33.118 46.3489 32.683 47.2117 32.9472 48.0111C33.0898 48.4424 33.4062 48.765 33.793 48.9318Z" fill="white"/>
<path d="M64.2035 71.8914C64.2035 71.8914 69.891 63.8818 70.6007 49.724C71.3103 35.5661 67.4822 32.1263 68.2404 30.2713C68.9986 28.4163 76.4028 27.5585 77.8229 27.5339C79.2433 27.5104 79.4989 29.1479 79.7486 31.5254C80 33.9037 81.5975 43.4143 76.6363 56.1606C71.6763 68.9065 64.3606 73.9967 64.3606 73.9967C64.3606 73.9967 63.1085 73.7185 64.2035 71.8914Z" fill="url(#paint7_linear_18058_5557)"/>
<path opacity="0.72" d="M72.4266 50.9821C73.1362 36.8242 69.3077 33.3832 70.0651 31.5298C70.7831 29.7746 77.4494 28.9121 79.3683 28.8036C79.0985 27.9831 78.6712 27.5053 77.8994 27.5171C76.4789 27.5406 69.0751 28.3995 68.3169 30.2545C67.5587 32.1095 71.3868 35.5493 70.6784 49.7068C69.9688 63.8646 64.2813 71.8742 64.2813 71.8742C63.1859 73.7001 64.4396 73.9791 64.4396 73.9791C64.4396 73.9791 65.3693 73.3312 66.7906 71.922C68.3626 69.179 71.8786 61.9142 72.4266 50.9821Z" fill="#FFFAFC"/>
<mask id="mask0_18058_5557" style="mask-type:alpha" maskUnits="userSpaceOnUse" x="63" y="27" width="18" height="47">
<path d="M79.7459 31.5267C79.4957 29.148 79.2405 27.5117 77.8201 27.5352C77.7071 27.5374 77.5551 27.5444 77.3722 27.5562C77.5705 28.2299 77.678 29.1081 77.7855 30.1215C78.0369 32.4997 79.6345 42.0104 74.6733 54.7567C71.7397 62.2966 67.9814 67.1572 65.4004 69.8701C64.6913 71.202 64.2004 71.8914 64.2004 71.8914C63.105 73.7173 64.3587 73.9964 64.3587 73.9964C64.3587 73.9964 71.6744 68.9061 76.6344 56.1602C81.5944 43.4144 79.9972 33.905 79.7459 31.5267Z" fill="url(#paint8_linear_18058_5557)"/>
</mask>
<g mask="url(#mask0_18058_5557)">
<path d="M79.749 31.5273C79.4989 29.1486 79.2437 27.5123 77.8233 27.5358C77.7103 27.538 77.5583 27.545 77.3754 27.5568C77.5737 28.2306 77.6812 29.1087 77.7887 30.1221C78.0401 32.5004 79.6376 42.011 74.6764 54.7573C71.7429 62.2972 69.236 67.6552 66.6562 70.3677C65.9472 71.6996 58.1293 76.7206 58.1293 76.7206C57.0339 78.5465 64.3635 73.9978 64.3635 73.9978C64.3635 73.9978 71.6792 68.9075 76.6392 56.1617C81.5975 43.415 80.0004 33.9056 79.749 31.5273Z" fill="url(#paint9_linear_18058_5557)"/>
</g>
<path d="M61.5445 75.1976C61.5445 75.1976 69.1978 70.7108 74.2728 57.9566C79.3466 45.2029 76.9602 40.039 78.226 38.7123C79.4931 37.3852 86.4615 40.4102 87.7537 41.1211C89.046 41.8321 88.7639 43.4811 88.2465 45.8147C87.7291 48.1484 86.1966 57.7853 77.7183 67.0376C69.24 76.2899 61.028 77.2309 61.028 77.2309C61.028 77.2309 59.9822 76.3235 61.5445 75.1976Z" fill="url(#paint10_linear_18058_5557)"/>
<path opacity="0.72" d="M75.5416 60.0649C80.6154 47.3112 78.229 42.1473 79.4949 40.8206C80.6934 39.5648 86.9961 42.2056 88.7657 43.0954C88.7785 42.1963 88.5412 41.5314 87.8397 41.1455C86.5474 40.4346 79.579 37.4096 78.312 38.7367C77.0449 40.0638 79.4329 45.2285 74.3587 57.981C69.2849 70.7348 61.6304 75.222 61.6304 75.222C60.0685 76.3492 61.1139 77.2553 61.1139 77.2553C61.1139 77.2553 62.1587 77.1357 63.8848 76.5624C66.1674 74.8307 71.6233 69.9132 75.5416 60.0649Z" fill="#FFFAFC"/>
<mask id="mask1_18058_5557" style="mask-type:alpha" maskUnits="userSpaceOnUse" x="60" y="40" width="29" height="38">
<path d="M88.2501 45.8135C88.768 43.481 89.05 41.8321 87.7574 41.1199C87.6547 41.0632 87.5147 40.9919 87.3451 40.9088C87.3145 41.6353 87.1363 42.5051 86.9155 43.4999C86.3981 45.8336 84.8656 55.4705 76.3874 64.7228C71.3723 70.1961 66.4505 72.7609 63.2657 73.942C62.2069 74.8097 61.5469 75.1967 61.5469 75.1967C59.985 76.3239 61.0304 77.23 61.0304 77.23C61.0304 77.23 69.2424 76.2891 77.7207 67.0368C86.2002 57.784 87.7327 48.1471 88.2501 45.8135Z" fill="url(#paint11_linear_18058_5557)"/>
</mask>
<g mask="url(#mask1_18058_5557)">
<path d="M88.2579 45.8135C88.7758 43.481 89.0579 41.8321 87.7652 41.1199C87.6626 41.0632 87.5226 40.9919 87.3529 40.9088C87.3223 41.6353 87.1442 42.5051 86.9233 43.4999C86.4059 45.8336 84.8735 55.4705 76.3952 64.7228C71.3801 70.1961 66.4583 72.7609 63.2735 73.942C62.2147 74.8097 61.5547 75.1967 61.5547 75.1967C59.9928 76.3239 61.0382 77.23 61.0382 77.23C61.0382 77.23 69.2503 76.2891 77.7285 67.0368C86.208 57.784 87.7405 48.1471 88.2579 45.8135Z" fill="url(#paint12_linear_18058_5557)"/>
</g>
<path d="M61.7324 75.6989C61.7324 75.6989 68.8145 75.5045 76.3145 68.4408C83.8158 61.3767 83.4918 56.7841 84.8302 56.3363C86.1702 55.8894 90.576 60.7534 91.3508 61.7625C92.1253 62.7703 91.4385 63.8299 90.3767 65.2824C89.315 66.7349 85.39 72.9711 76.3173 76.2227C67.2449 79.4754 60.7582 76.9373 60.7582 76.9373C60.7582 76.9373 60.2258 75.8874 61.7324 75.6989Z" fill="url(#paint13_linear_18058_5557)"/>
<path opacity="0.72" d="M76.889 70.4701C84.3902 63.406 84.0646 58.8126 85.4046 58.3656C86.5994 57.9666 90.2297 61.7908 91.5524 63.3392C91.7528 62.7742 91.7283 62.2619 91.3441 61.7631C90.5693 60.754 86.1631 55.8888 84.8235 56.3369C83.4835 56.7839 83.8091 61.3773 76.3078 68.4414C68.8061 75.5043 61.7257 75.6995 61.7257 75.6995C60.2194 75.8892 60.7507 76.9396 60.7507 76.9396C60.7507 76.9396 61.7286 77.3219 63.4541 77.5991C65.7583 77.2308 71.2037 75.8243 76.889 70.4701Z" fill="#FFFAFC"/>
<mask id="mask2_18058_5557" style="mask-type:alpha" maskUnits="userSpaceOnUse" x="60" y="60" width="32" height="18">
<path d="M91.3439 61.7636C91.1872 61.5599 90.8823 61.1984 90.4854 60.7552C90.3096 61.3742 89.839 62.0556 89.2538 62.8572C88.192 64.3097 84.2671 70.5459 75.1943 73.7975C70.6109 75.4408 66.6871 75.6064 63.9275 75.3669C62.5485 75.6754 61.7263 75.6984 61.7263 75.6984C60.22 75.8881 60.7513 76.9385 60.7513 76.9385C60.7513 76.9385 67.2379 79.4766 76.3103 76.2238C85.3831 72.9723 89.3092 66.7357 90.3698 65.2835C91.4316 63.831 92.1183 62.7714 91.3439 61.7636Z" fill="url(#paint14_linear_18058_5557)"/>
</mask>
<g mask="url(#mask2_18058_5557)">
<path d="M91.3439 61.7636C91.1872 61.5599 90.8823 61.1984 90.4854 60.7552C90.3096 61.3742 89.839 62.0556 89.2538 62.8572C88.192 64.3097 84.2671 70.5459 75.1943 73.7975C70.6109 75.4408 66.6871 75.6064 63.9275 75.3669C62.5485 75.6754 61.7263 75.6984 61.7263 75.6984C60.22 75.8881 60.7513 76.9385 60.7513 76.9385C60.7513 76.9385 67.2379 79.4766 76.3103 76.2238C85.3831 72.9723 89.3092 66.7357 90.3698 65.2835C91.4316 63.831 92.1183 62.7714 91.3439 61.7636Z" fill="url(#paint15_linear_18058_5557)"/>
</g>
<path d="M66.6016 75.6292C66.6016 75.6292 68.4998 79.1933 76.6907 75.9358C84.8804 72.6788 85.3422 68.8294 86.6689 68.9113C87.9967 68.9928 91.3069 74.4204 91.8628 75.5004C92.4184 76.5793 91.6004 77.2132 90.3654 78.0431C89.1315 78.8727 84.4223 82.6459 75.3965 82.2757C66.3707 81.9055 65.484 76.3149 65.484 76.3149C65.484 76.3149 65.1628 75.2816 66.6016 75.6292Z" fill="url(#paint16_linear_18058_5557)"/>
<mask id="mask3_18058_5557" style="mask-type:alpha" maskUnits="userSpaceOnUse" x="60" y="69" width="33" height="14">
<path d="M91.8648 75.4987C91.3997 74.5955 89.0044 70.6456 87.4567 69.3338C88.6495 70.9521 89.804 72.8845 90.1115 73.4831C90.6671 74.5619 89.8491 75.1958 88.614 76.0258C87.3802 76.8553 82.671 80.6285 73.6452 80.2583C67.8954 80.0232 63.5182 78.2233 61.0982 76.947C60.5411 77.0757 60.7299 77.6797 60.7299 77.6797C60.7299 77.6797 66.3727 81.9038 75.3984 82.274C84.4242 82.6442 89.1334 78.871 90.3673 78.0414C91.6024 77.2115 92.4216 76.5771 91.8648 75.4987Z" fill="url(#paint17_linear_18058_5557)"/>
</mask>
<g mask="url(#mask3_18058_5557)">
<path d="M91.8626 75.4988C91.3976 74.5955 89.0023 70.6457 87.4546 69.3339C88.6474 70.9522 89.8019 72.8846 90.1093 73.4832C90.6649 74.562 89.847 75.1959 88.6119 76.0258C87.378 76.8554 82.6688 80.6286 73.643 80.2584C67.8932 80.0233 68.2721 76.8568 65.8521 75.5806C65.295 75.7093 65.4838 76.3133 65.4838 76.3133C65.4838 76.3133 66.3705 81.9039 75.3963 82.2741C84.4221 82.6443 89.1313 78.871 90.3652 78.0415C91.6002 77.2116 92.4194 76.5772 91.8626 75.4988Z" fill="url(#paint18_linear_18058_5557)"/>
<path opacity="0.72" d="M86.631 70.6222C85.3031 70.5407 84.8426 74.3897 76.6529 77.6467C70.4146 80.1276 69.8249 78.0774 67.6293 77.611C66.2335 76.8775 65.4801 76.3142 65.4801 76.3142C65.4801 76.3142 65.1577 75.2813 66.5977 75.6285C66.5977 75.6285 68.4959 79.1925 76.6868 75.9351C84.8765 72.6781 85.3383 68.8287 86.665 68.9106C87.9928 68.9921 91.303 74.4197 91.8589 75.4997C92.1616 76.0877 87.8788 70.6991 86.631 70.6222Z" fill="#FFFAFC"/>
</g>
<path d="M43.0877 78.8675C43.0877 78.8675 33.7473 75.825 24.7401 64.8788C15.733 53.9326 16.7571 48.889 15.0428 47.8512C13.3285 46.8134 6.87148 50.5371 5.71646 51.3636C4.56185 52.1913 5.33246 53.6586 6.54875 55.7165C7.76422 57.7761 12.1492 66.3655 23.7292 73.6445C35.308 80.9239 44.2162 80.6517 44.2162 80.6517C44.2162 80.6517 45.0559 79.6821 43.0877 78.8675Z" fill="url(#paint19_linear_18058_5557)"/>
<path opacity="0.72" d="M24.0243 66.9801C15.0183 56.0335 16.0421 50.9887 14.3277 49.9509C12.7051 48.9693 6.83789 52.2494 5.23231 53.3059C4.96004 52.4862 5.01843 51.8479 5.64523 51.3974C6.79983 50.5697 13.2572 46.8472 14.9716 47.885C16.6859 48.9228 15.6617 53.9664 24.6677 64.913C33.6748 75.8592 43.0153 78.9016 43.0153 78.9016C44.9831 79.7151 44.1426 80.6863 44.1426 80.6863C44.1426 80.6863 43.0098 80.7201 41.0287 80.4355C38.132 79.1708 30.9792 75.4323 24.0243 66.9801Z" fill="#FFFAFC"/>
<mask id="mask4_18058_5557" style="mask-type:alpha" maskUnits="userSpaceOnUse" x="5" y="51" width="40" height="30">
<path d="M6.55428 55.7177C5.33759 53.6585 4.56738 52.1924 5.72199 51.3647C5.81403 51.2992 5.94027 51.2142 6.09418 51.1147C6.33645 51.7739 6.77347 52.5432 7.29103 53.421C8.5065 55.4806 12.8914 64.07 24.4715 71.3489C31.3206 75.6555 37.2352 77.3189 40.9246 77.9593C42.2878 78.6063 43.0929 78.8674 43.0929 78.8674C45.0606 79.6808 44.2202 80.652 44.2202 80.652C44.2202 80.652 35.3119 80.9242 23.7331 73.6448C12.1555 66.365 7.77097 57.7769 6.55428 55.7177Z" fill="url(#paint20_linear_18058_5557)"/>
</mask>
<g mask="url(#mask4_18058_5557)">
<path d="M6.55427 55.7177C5.33758 53.6585 4.56738 52.1924 5.72199 51.3647C5.81403 51.2992 5.94027 51.2142 6.09418 51.1147C6.33645 51.7739 6.77347 52.5432 7.29103 53.421C8.5065 55.4806 12.8914 64.07 24.4715 71.3489C31.3206 75.6555 36.5267 78.4641 40.2149 79.1049C41.578 79.7519 50.8482 79.1249 50.8482 79.1249C52.8159 79.9383 44.2193 80.6536 44.2193 80.6536C44.2193 80.6536 35.3111 80.9258 23.7323 73.6464C12.1555 66.365 7.77096 57.7769 6.55427 55.7177Z" fill="url(#paint21_linear_18058_5557)"/>
</g>
<path d="M47.2265 79.9357C47.2265 79.9357 38.4069 80.8936 26.7307 73.6761C15.0558 66.4582 13.8947 60.8893 12.0876 60.5783C10.2793 60.2677 6.48619 66.8496 5.87218 68.1907C5.25817 69.5317 6.4674 70.6878 8.27362 72.2534C10.0798 73.819 17.0535 80.6444 29.3757 83.0217C41.6978 85.399 48.853 81.2606 48.853 81.2606C48.853 81.2606 49.1521 79.9088 47.2265 79.9357Z" fill="url(#paint22_linear_18058_5557)"/>
<path opacity="0.72" d="M26.9673 76.1192C15.2924 68.9013 14.1313 63.3324 12.3242 63.0214C10.6133 62.7272 7.12595 68.6039 6.23513 70.373C5.68903 69.6587 5.48338 68.9833 5.81677 68.2554C6.43079 66.9143 10.2239 60.3324 12.0322 60.643C13.8406 60.9536 15.0008 66.5241 26.6753 73.7408C38.3503 80.9587 47.1711 80.0004 47.1711 80.0004C49.0971 79.9747 48.7976 81.3253 48.7976 81.3253C48.7976 81.3253 47.8873 81.8519 46.1597 82.4203C43.2947 82.39 35.9828 81.6925 26.9673 76.1192Z" fill="#FFFAFC"/>
<mask id="mask5_18058_5557" style="mask-type:alpha" maskUnits="userSpaceOnUse" x="5" y="67" width="44" height="17">
<path d="M8.26824 72.2516C6.46242 70.6872 5.25319 69.5311 5.8668 68.1889C5.91548 68.0822 5.9854 67.9415 6.07205 67.7736C6.52959 68.3388 7.19106 68.9311 7.96122 69.5984C9.76744 71.164 16.7411 77.9894 29.0633 80.3667C36.3523 81.7732 41.8331 80.8997 45.0944 79.9502C46.4618 80.0159 47.2224 79.9335 47.2224 79.9335C49.1484 79.9078 48.8489 81.2584 48.8489 81.2584C48.8489 81.2584 41.6937 85.3968 29.3715 83.0195C17.0481 80.6426 10.0745 73.8172 8.26824 72.2516Z" fill="url(#paint23_linear_18058_5557)"/>
</mask>
<g mask="url(#mask5_18058_5557)">
<path d="M8.26043 72.2516C6.45461 70.6872 5.24538 69.5311 5.85899 68.1889C5.90767 68.0822 5.97758 67.9415 6.06424 67.7736C6.52178 68.3388 7.18325 68.9311 7.95341 69.5984C9.75963 71.164 16.7333 77.9894 29.0555 80.3667C36.3445 81.7732 41.8253 80.8997 45.0866 79.9502C46.4539 80.0159 47.2146 79.9335 47.2146 79.9335C49.1406 79.9078 48.8411 81.2584 48.8411 81.2584C48.8411 81.2584 41.6859 85.3968 29.3637 83.0195C17.0403 80.6426 10.0667 73.8172 8.26043 72.2516Z" fill="url(#paint24_linear_18058_5557)"/>
</g>
<path d="M47.3629 80.4413C47.3629 80.4413 41.56 84.5057 31.3276 83.303C21.0941 82.1006 18.6173 78.2196 17.2757 78.6576C15.9333 79.0973 15.294 85.6289 15.2732 86.9009C15.2519 88.1717 16.4348 88.6134 18.1531 89.147C19.8713 89.6807 26.7396 92.3495 35.963 89.5537C45.1868 86.7591 48.8832 80.8552 48.8832 80.8552C48.8832 80.8552 48.6863 79.6944 47.3629 80.4413Z" fill="url(#paint25_linear_18058_5557)"/>
<path opacity="0.72" d="M32.0702 85.2783C21.8367 84.076 19.3607 80.1933 18.0183 80.6329C16.8211 81.0246 16.1849 86.2589 16.0455 88.2906C15.5479 87.9563 15.2622 87.5303 15.2735 86.9008C15.2943 85.6288 15.9332 79.096 17.276 78.6575C18.6185 78.2179 21.0944 82.1005 31.328 83.3029C41.5611 84.504 47.3632 80.4412 47.3632 80.4412C48.6858 79.6959 48.8839 80.8563 48.8839 80.8563C48.8839 80.8563 48.3265 81.7461 47.106 82.997C45.0375 84.0741 39.8276 86.1894 32.0702 85.2783Z" fill="#FFFAFC"/>
<mask id="mask6_18058_5557" style="mask-type:alpha" maskUnits="userSpaceOnUse" x="15" y="80" width="34" height="11">
<path d="M15.282 86.902C15.2864 86.6451 15.3158 86.1731 15.3704 85.5806C15.8805 85.9729 16.6645 86.2396 17.6121 86.5346C19.3304 87.0683 26.1986 89.7371 35.422 86.9413C40.0819 85.5294 43.3316 83.324 45.4048 81.4872C46.696 80.9131 47.37 80.4416 47.37 80.4416C48.6926 79.6963 48.892 80.8563 48.892 80.8563C48.892 80.8563 45.1956 86.7602 35.9718 89.5547C26.748 92.3493 19.8789 89.6822 18.1619 89.1481C16.4436 88.6145 15.2607 88.1728 15.282 86.902Z" fill="url(#paint26_linear_18058_5557)"/>
</mask>
<g mask="url(#mask6_18058_5557)">
<path d="M15.2741 86.902C15.2786 86.6451 15.308 86.1731 15.3626 85.5806C15.8727 85.9729 16.6567 86.2396 17.6043 86.5346C19.3226 87.0683 26.1908 89.7371 35.4142 86.9413C40.0741 85.5294 43.3238 83.324 45.397 81.4872C46.6882 80.9131 47.3622 80.4416 47.3622 80.4416C48.6848 79.6963 48.8842 80.8563 48.8842 80.8563C48.8842 80.8563 45.1878 86.7602 35.964 89.5547C26.7402 92.3493 19.8711 89.6822 18.1541 89.1481C16.4358 88.6145 15.2529 88.1728 15.2741 86.902Z" fill="url(#paint27_linear_18058_5557)"/>
</g>
<path d="M43.4228 83.2866C43.4228 83.2866 44.0225 87.2798 35.5038 89.5453C26.9862 91.8105 24.3214 88.9945 23.3049 89.8509C22.2871 90.7077 22.8636 97.0388 23.0607 98.2374C23.2575 99.4348 24.2921 99.4565 25.7785 99.3869C27.2637 99.3177 33.294 99.5412 40.3213 93.8651C47.3486 88.189 44.7289 83.1711 44.7289 83.1711C44.7289 83.1711 44.3723 82.1496 43.4228 83.2866Z" fill="url(#paint28_linear_18058_5557)"/>
<mask id="mask7_18058_5557" style="mask-type:alpha" maskUnits="userSpaceOnUse" x="22" y="81" width="28" height="19">
<path d="M23.0592 98.2365C22.8944 97.234 22.4639 92.6347 22.925 90.6589C22.9316 92.6693 23.1561 94.9091 23.2659 95.573C23.4627 96.7704 24.4973 96.792 25.9837 96.7224C27.4689 96.6533 33.4991 96.8768 40.5265 91.2007C45.0036 87.5853 47.4459 83.5314 48.6286 81.0643C49.1527 80.8357 49.3611 81.4332 49.3611 81.4332C49.3611 81.4332 47.3471 88.188 40.3198 93.8641C33.2925 99.5403 27.2622 99.3167 25.777 99.3859C24.2918 99.4551 23.256 99.4339 23.0592 98.2365Z" fill="url(#paint29_linear_18058_5557)"/>
</mask>
<g mask="url(#mask7_18058_5557)">
<path d="M23.0605 98.2368C22.8957 97.2343 22.4652 92.635 22.9263 90.6592C22.9329 92.6696 23.1574 94.9094 23.2672 95.5733C23.464 96.7707 24.4986 96.7923 25.985 96.7228C27.4702 96.6536 33.5004 96.8771 40.5277 91.201C45.0049 87.5856 42.8136 85.2687 43.9963 82.8016C44.5204 82.573 44.7287 83.1705 44.7287 83.1705C44.7287 83.1705 47.3484 88.1883 40.3211 93.8645C33.2937 99.5406 27.2635 99.3171 25.7783 99.3862C24.2931 99.4554 23.2573 99.4342 23.0605 98.2368Z" fill="url(#paint30_linear_18058_5557)"/>
<path opacity="0.72" d="M24.3487 91.2056C25.3664 90.3488 28.03 93.1651 36.5476 90.9C43.0356 89.1746 42.2873 87.1768 43.7724 85.4938C44.4561 84.0729 44.7254 83.1716 44.7254 83.1716C44.7254 83.1716 44.3688 82.15 43.4193 83.287C43.4193 83.287 44.019 87.2803 35.5003 89.5458C26.9827 91.8109 24.3179 88.995 23.3014 89.8514C22.2836 90.7081 22.8601 97.0393 23.0572 98.2379C23.1646 98.8904 23.3924 92.0109 24.3487 91.2056Z" fill="#FFFAFC"/>
</g>
<path d="M46.2916 52.2291C34.0961 56.26 27.383 69.1245 31.2954 80.9612C35.2081 92.7992 48.2662 99.1314 60.4616 95.1005C72.6546 91.0705 79.3698 78.204 75.4566 66.3648C71.5431 54.5285 58.4845 48.1991 46.2916 52.2291Z" fill="url(#paint31_linear_18058_5557)"/>
<path d="M60.0541 94.1707C48.0246 98.1467 35.156 92.0398 31.053 80.5107C31.1021 80.6715 31.1528 80.8332 31.2056 80.9928C35.1183 92.8308 48.1764 99.163 60.373 95.1317C72.566 91.1016 79.2812 78.2352 75.368 66.396C75.3149 66.2352 75.2597 66.0763 75.2033 65.9179C78.7779 77.6217 72.0823 90.1951 60.0541 94.1707Z" fill="#FFF064"/>
<path opacity="0.35" d="M46.2916 52.2291C34.0961 56.26 27.383 69.1245 31.2954 80.9612C31.382 81.2232 31.4775 81.4755 31.5743 81.7314C38.8165 84.7699 47.562 85.2381 56.1097 82.4129C64.8074 79.5381 71.6354 73.8035 75.6131 66.8875C75.5608 66.7129 75.5146 66.5403 75.457 66.366C71.5431 54.5285 58.4845 48.1991 46.2916 52.2291Z" fill="white"/>
<path opacity="0.49" d="M66.7116 54.8678C60.9802 51.0596 53.5118 49.8435 46.3408 52.2137C39.1148 54.6021 33.8136 60.0942 31.5077 66.6333C37.4882 67.9763 44.1023 67.7338 50.6021 65.5855C57.1869 63.4077 62.6961 59.5931 66.7116 54.8678Z" fill="white"/>
<path opacity="0.49" d="M46.7033 53.4554C58.6852 49.4951 71.495 55.5431 75.6487 66.9838C75.5892 66.7791 75.5313 66.5712 75.4632 66.3652C71.5509 54.5285 58.4924 48.1991 46.2982 52.2296C34.104 56.26 27.3908 69.1245 31.3032 80.9612C31.3716 81.1684 31.4487 81.3686 31.5216 81.5689C28.0391 69.9063 34.7203 57.4161 46.7033 53.4554Z" fill="white"/>
<path d="M43.7975 54.6185C44.7989 54.1997 45.9875 54.2407 45.6223 54.8561C45.2551 55.4735 42.442 58.6227 40.5174 57.8869C38.5897 57.1495 42.6199 55.1105 43.7975 54.6185Z" fill="white"/>
<path d="M33.6524 64.0168C31.3288 67.7827 30.3798 73.6354 31.4087 76.5312C32.4384 79.4254 32.4869 74.3339 32.7435 72.4068C33.002 70.4818 35.3575 64.0844 37.7716 61.5875C40.1874 59.0873 37.2862 58.1282 33.6524 64.0168Z" fill="white"/>
<path d="M48.1055 57.7033C39.0379 60.7004 34.0464 70.2668 36.9555 79.0682C39.865 87.8708 49.574 92.577 58.6415 89.58C67.7091 86.5829 72.6998 77.0181 69.7903 68.2155C66.88 59.4145 57.173 54.7063 48.1055 57.7033Z" fill="url(#paint32_linear_18058_5557)"/>
<g opacity="0.35">
<path opacity="0.35" d="M58.9611 90.6497C49.4017 93.8093 39.1254 88.8202 36.054 79.5278C32.9831 70.2365 38.262 60.1061 47.8213 56.9465C57.3795 53.7873 67.6557 58.7763 70.7267 68.0676C73.7981 77.3601 68.5192 87.4905 58.9611 90.6497ZM48.3272 58.4769C39.6123 61.3574 34.7938 70.5747 37.586 79.0227C40.3787 87.472 49.7408 92.0009 58.4556 89.1204C67.1692 86.2404 71.9866 77.0235 69.1943 68.5754C66.4016 60.1262 57.0408 55.5969 48.3272 58.4769Z" fill="white"/>
</g>
<path opacity="0.39" d="M48.101 57.7026C43.2865 59.2939 39.6206 62.7385 37.6785 66.9379C39.7347 63.3252 43.1251 60.411 47.4416 58.9843C56.5067 55.988 66.2153 60.693 69.1248 69.4956C70.4897 73.6252 70.1168 77.9197 68.3992 81.6272C70.6662 77.6488 71.3118 72.8277 69.7866 68.2132C66.8754 59.4138 57.1685 54.7056 48.101 57.7026Z" fill="#B06518"/>
<path opacity="0.39" d="M46.2581 86.4492C42.8585 76.1636 48.341 68.0826 57.4061 65.0863C61.1112 63.8617 64.9222 63.924 68.331 65.0261C64.3785 58.3308 55.9949 55.0951 48.0965 57.7057C39.0301 60.7023 34.0386 70.2687 36.9477 79.0702C38.6695 84.2794 42.7697 88.0509 47.7083 89.645C47.1241 88.6513 46.6335 87.5848 46.2581 86.4492Z" fill="#B06518"/>
<path d="M58.3475 88.7091C49.4398 91.6533 39.9151 87.1566 36.8271 78.6495C36.8706 78.8054 36.9128 78.9577 36.9639 79.1125C39.8738 87.9163 49.5824 92.6213 58.6499 89.6242C67.7175 86.6272 72.7086 77.0636 69.7987 68.2598C69.7475 68.105 69.6903 67.9563 69.6363 67.8052C72.2231 76.4793 67.2564 85.7645 58.3475 88.7091Z" fill="#FFF064"/>
<path d="M169.456 46.7312C166.131 45.6326 154.101 50.9428 153.813 51.8128L145.268 77.673L144.314 80.5585L139.927 93.8359C139.639 94.7072 147.012 103.493 150.336 104.592C153.66 105.69 164.816 103.027 165.104 102.156L169.492 88.8771L170.446 85.9915L178.991 60.1326C179.279 59.2613 172.78 47.8297 169.456 46.7312Z" fill="url(#paint33_linear_18058_5557)"/>
<path d="M180.562 62.499L175.841 76.7866L174.17 81.8448L167.777 101.189C171.223 102.328 182.999 96.9338 183.287 96.0638L187.205 84.2072L187.696 82.7206L189.964 75.8577C190.253 74.9868 184.008 63.6375 180.562 62.499Z" fill="url(#paint34_linear_18058_5557)"/>
<path d="M135.633 57.9048L134.094 62.5622L132.875 66.2532L128.957 78.1097C128.669 78.981 134.913 90.3287 138.094 91.3796L144.486 72.0363L146.885 64.7737L150.878 52.6905C147.699 51.64 135.921 57.0336 135.633 57.9048Z" fill="url(#paint35_linear_18058_5557)"/>
<path d="M151.018 102.516C154.343 103.614 165.499 100.951 165.787 100.08L165.101 102.155C164.813 103.026 153.657 105.689 150.333 104.591C147.008 103.492 139.636 94.7062 139.924 93.835L140.609 91.7598C140.321 92.631 147.694 101.417 151.018 102.516Z" fill="#89125F"/>
<path d="M183.971 93.989L183.285 96.0642C182.998 96.9354 171.221 102.328 167.776 101.19L168.462 99.1146C171.906 100.253 183.684 94.859 183.971 93.989Z" fill="#89125F"/>
<path d="M138.778 89.3061L138.092 91.3813C134.911 90.3303 128.667 78.9814 128.955 78.1113L129.641 76.0361C129.352 76.9058 135.597 88.2551 138.778 89.3061Z" fill="#89125F"/>
<g opacity="0.49">
<path opacity="0.49" d="M168.77 48.8064C172.095 49.9049 178.592 61.3377 178.305 62.2078L178.991 60.1326C179.278 59.2625 172.78 47.8297 169.456 46.7312C166.131 45.6326 154.101 50.9428 153.813 51.8128L153.128 53.888C153.415 53.018 165.446 47.7078 168.77 48.8064Z" fill="white"/>
<g opacity="0.49">
<path opacity="0.49" d="M189.286 77.9326L189.972 75.8574C190.26 74.9862 184.016 63.6385 180.57 62.5L179.885 64.5752C183.329 65.712 189.574 77.0614 189.286 77.9326Z" fill="white"/>
<path opacity="0.49" d="M150.2 54.7657L150.886 52.6905C147.706 51.6396 135.929 57.0336 135.641 57.9036L134.956 59.9788C135.242 59.1084 147.02 53.7148 150.2 54.7657Z" fill="white"/>
</g>
</g>
<path d="M186.677 46.3088C186.646 46.2983 186.614 46.2919 186.582 46.2826C186.582 46.2814 186.582 46.2814 186.582 46.2802C186.55 46.2709 186.517 46.2641 186.485 46.256C186.476 46.2544 186.466 46.2512 186.457 46.2496C185.374 45.9889 184.255 46.5924 183.9 47.6684C183.731 48.1777 183.765 48.7037 183.953 49.1648L175.225 45.2195L173.784 39.003C174.421 38.7999 174.957 38.3081 175.183 37.6257C175.557 36.4924 174.94 35.2695 173.805 34.8945C172.67 34.5194 171.447 35.1341 171.072 36.2674C170.841 36.9656 170.987 37.6963 171.398 38.243L166.557 42.3554L157.172 40.2961C157.588 40.039 157.922 39.641 158.088 39.1389C158.462 38.0057 157.846 36.7828 156.711 36.4077C155.576 36.0327 154.352 36.6474 153.977 37.7807C153.603 38.9139 154.219 40.1368 155.354 40.5118C155.445 40.5417 155.536 40.5638 155.627 40.5802L154.187 52.6352L166.004 56.5402L167.263 56.956L179.08 60.861L185.062 50.3071C185.147 50.3471 185.232 50.3846 185.322 50.4145C186.457 50.7895 187.681 50.1748 188.055 49.0416C188.429 47.9067 187.812 46.6838 186.677 46.3088Z" fill="url(#paint36_linear_18058_5557)"/>
<g opacity="0.49">
<path opacity="0.49" d="M171.228 37.086C171.603 35.9527 172.826 35.338 173.961 35.7131C174.591 35.9212 175.061 36.3914 175.291 36.962C175.298 36.0479 174.721 35.1935 173.805 34.891C172.67 34.516 171.446 35.1307 171.072 36.264C170.905 36.7697 170.938 37.2916 171.123 37.7486C171.125 37.5302 171.155 37.3065 171.228 37.086Z" fill="white"/>
<path opacity="0.49" d="M173.946 39.8234L175.387 46.0399L184.116 49.9852C184.01 49.7273 183.955 49.4482 183.956 49.1632L175.231 45.2179L173.979 39.8112C173.967 39.8141 173.957 39.819 173.946 39.8234Z" fill="white"/>
<path opacity="0.49" d="M155.907 40.6446C155.815 40.6265 155.725 40.606 155.634 40.5762C155.631 40.575 155.502 41.3298 155.498 41.3286L154.184 52.6344L154.463 52.7268L155.907 40.6446Z" fill="white"/>
<path opacity="0.49" d="M184.064 48.4886C184.419 47.4138 185.538 46.809 186.621 47.0697C186.63 47.0714 186.64 47.0746 186.649 47.0762C186.681 47.0842 186.714 47.0911 186.746 47.1003C186.746 47.1015 186.746 47.1015 186.746 47.1028C186.778 47.112 186.809 47.1185 186.841 47.1289C187.471 47.337 187.941 47.8073 188.171 48.3779C188.178 47.4638 187.6 46.6094 186.685 46.3069C186.653 46.2964 186.622 46.29 186.589 46.2808C186.59 46.2795 186.59 46.2795 186.59 46.2783C186.557 46.2686 186.525 46.2622 186.493 46.2542C186.484 46.2526 186.474 46.2493 186.465 46.2477C185.382 45.987 184.263 46.5906 183.907 47.6665C183.741 48.171 183.772 48.6938 183.957 49.1508C183.958 48.9308 183.991 48.7079 184.064 48.4886Z" fill="white"/>
<path opacity="0.49" d="M157.335 41.1162L166.72 43.1755L171.751 38.9016C171.6 38.7002 171.486 38.4747 171.412 38.2342L166.565 42.3522L157.179 40.2929C157.036 40.454 156.882 40.5123 157.335 41.1162Z" fill="white"/>
<path opacity="0.49" d="M154.134 38.6006C154.509 37.4674 155.733 36.8527 156.868 37.2277C157.497 37.4358 157.967 37.906 158.197 38.4767C158.204 37.5626 157.627 36.7082 156.711 36.4057C155.576 36.0306 154.353 36.6454 153.978 37.7786C153.811 38.2831 153.842 38.8042 154.026 39.2608C154.026 39.0421 154.062 38.82 154.134 38.6006Z" fill="white"/>
</g>
<path d="M147.008 33.1165C144.723 30.6243 130.48 24.9596 131.399 27.9556C132.202 30.5727 135.565 42.8025 136.438 43.8426C137.312 44.8827 148.9 58.9153 149.967 59.2085C151.036 59.5021 156.066 57.4947 157.656 57.4593C159.248 57.4242 147.718 33.889 147.008 33.1165Z" fill="url(#paint37_linear_18058_5557)"/>
<path opacity="0.2" d="M135.424 41.3745C134.073 37.3935 132.004 29.9331 131.399 27.9556C130.48 24.9596 144.723 30.6243 147.009 33.1165C147.315 33.4503 149.636 38.0234 152.048 43.1172C147.624 46.7834 140.461 46.0855 135.424 41.3745Z" fill="white"/>
<path opacity="0.49" d="M157.656 57.4613C157.6 57.463 157.536 57.4607 157.466 57.4564C155.607 51.8277 147.64 35.6612 147.053 35.0228C145.05 32.8389 133.86 28.2165 131.746 29.1278C131.605 28.6419 131.486 28.2419 131.399 27.9576C130.48 24.9616 144.723 30.6262 147.009 33.1184C147.718 33.8893 159.247 57.4246 157.656 57.4613Z" fill="white"/>
<path d="M135.489 42.6302C133.138 41.2775 120.878 40.3889 122.307 42.4587C123.555 44.266 129.092 52.8064 130.01 53.3897C130.93 53.9747 148 63.7487 148.887 63.7147C149.774 63.6807 148.323 59.0854 149.53 58.6733C150.737 58.2628 136.219 43.0512 135.489 42.6302Z" fill="url(#paint38_linear_18058_5557)"/>
<path opacity="0.2" d="M128.636 51.7495C126.637 49.0318 123.249 43.8262 122.307 42.4607C120.878 40.3908 133.138 41.2795 135.489 42.6322C135.805 42.8134 138.687 45.7487 141.766 49.0624C139.273 52.9343 133.628 54.1344 128.636 51.7495Z" fill="white"/>
<path opacity="0.49" d="M149.53 58.675C149.487 58.6893 149.438 58.704 149.383 58.7184C146.597 54.8634 136.589 44.4265 135.986 44.0799C133.925 42.8934 124.25 42.0658 122.857 43.2731C122.63 42.9347 122.444 42.6582 122.307 42.4617C120.878 40.3918 133.138 41.2805 135.489 42.6332C136.219 43.0513 150.737 58.2629 149.53 58.675Z" fill="white"/>
<path d="M131.372 54.3667C129.082 53.9438 118.908 56.7289 120.658 57.9964C122.185 59.1041 129.112 64.4353 130.024 64.6449C130.934 64.8552 149.328 70.9928 150.036 70.7132C150.745 70.4324 153.906 66.622 148.011 63.3818C147.051 62.8537 132.084 54.4979 131.372 54.3667Z" fill="url(#paint39_linear_18058_5557)"/>
<path opacity="0.2" d="M128.441 63.7066C126.046 62.0772 121.812 58.8318 120.657 57.9948C118.908 56.7273 129.082 53.9422 131.372 54.3651C131.679 54.4221 134.852 55.9747 138.294 57.7769C137.387 61.6267 133.164 64.2104 128.441 63.7066Z" fill="white"/>
<path opacity="0.49" d="M147.33 63.3418C147.301 63.3658 147.264 63.3915 147.224 63.4188C143.864 61.0937 132.775 55.5047 132.189 55.3959C130.181 55.0244 122.116 57.1198 121.334 58.4954C121.054 58.2866 120.823 58.1158 120.657 57.9948C118.908 56.7273 129.082 53.9422 131.372 54.3651C132.084 54.4975 148.189 62.6634 147.33 63.3418Z" fill="white"/>
<path d="M130.92 64.7531C128.744 64.7598 119.884 69.0768 121.71 69.9383C123.304 70.6906 130.588 74.391 131.461 74.4269C132.335 74.4628 148.725 75.3779 149.327 74.9971C149.929 74.6175 151.426 70.6304 147.833 69.9838C146.827 69.8041 131.597 64.7508 130.92 64.7531Z" fill="url(#paint40_linear_18058_5557)"/>
<path opacity="0.2" d="M129.844 73.8391C127.361 72.7566 122.912 70.5065 121.708 69.9383C119.883 69.0769 128.742 64.7611 130.919 64.7532C131.21 64.7521 134.393 65.6298 137.864 66.6915C137.699 70.3823 134.268 73.4858 129.844 73.8391Z" fill="white"/>
<path opacity="0.49" d="M147.126 70.2404C147.102 70.2676 147.074 70.2977 147.042 70.3303C143.556 68.7754 132.405 65.557 131.846 65.559C129.938 65.5651 122.897 68.8826 122.417 70.2823C122.123 70.1393 121.881 70.0217 121.708 69.94C119.882 69.0786 128.741 64.7628 130.918 64.7549C131.594 64.751 147.796 69.4686 147.126 70.2404Z" fill="white"/>
<path d="M135.238 74.4626C133.604 74.8164 127.64 79.475 129.151 79.831C130.469 80.1423 136.533 81.7582 137.196 81.646C137.857 81.5334 144.219 80.3244 144.611 79.9428C145.002 79.5612 150.703 75.721 151.085 75.0334C151.463 74.3462 135.745 74.3531 135.238 74.4626Z" fill="url(#paint41_linear_18058_5557)"/>
<path opacity="0.2" d="M135.893 81.4631C133.855 81.0466 130.152 80.0661 129.156 79.8316C127.646 79.476 133.61 74.8157 135.243 74.4632C135.461 74.4164 137.994 74.5669 140.771 74.8085C141.238 77.6094 139.158 80.4905 135.893 81.4631Z" fill="white"/>
<path opacity="0.49" d="M151.083 75.0329C151.07 75.0569 151.053 75.0837 151.033 75.1138C148.165 74.5026 136.482 74.8291 136.064 74.9193C134.632 75.2288 129.873 78.8479 129.737 79.9761C129.494 79.9146 129.294 79.8663 129.15 79.8321C127.64 79.4765 133.604 74.8162 135.237 74.4637C135.746 74.3534 151.464 74.3465 151.083 75.0329Z" fill="white"/>
<path d="M138.34 81.885C137.089 82.8205 133.835 89.1006 135.257 88.8163C136.499 88.5684 142.282 87.5884 142.801 87.2354C143.319 86.8823 153.712 79.0104 153.897 78.5335C154.081 78.0562 155.435 74.4786 155.49 73.7454C155.545 73.0134 138.729 81.5944 138.34 81.885Z" fill="url(#paint42_linear_18058_5557)"/>
<path opacity="0.2" d="M141.618 87.5883C139.723 88.0246 136.195 88.6304 135.257 88.8179C133.835 89.1023 137.089 82.8222 138.34 81.8867C138.508 81.761 140.719 80.9063 143.174 80.0332C144.661 82.2332 144.017 85.4911 141.618 87.5883Z" fill="white"/>
<path opacity="0.49" d="M155.489 73.747C155.487 73.7722 155.483 73.8019 155.479 73.8343C152.803 74.4286 139.542 81.7136 139.22 81.9534C138.124 82.7724 135.488 87.7 135.811 88.7124C135.581 88.7551 135.392 88.7912 135.257 88.8183C133.835 89.1027 137.089 82.8225 138.34 81.8871C138.728 81.5948 155.544 73.0139 155.489 73.747Z" fill="white"/>
<path d="M195.676 49.1948C198.996 48.5553 213.81 52.492 211.287 54.3508C209.083 55.9742 199.095 63.7921 197.774 64.107C196.452 64.422 178.785 68.7871 177.753 68.3866C176.72 67.9858 173.876 63.3764 172.62 62.4005C171.364 61.4246 194.645 49.3922 195.676 49.1948Z" fill="url(#paint43_linear_18058_5557)"/>
<path opacity="0.2" d="M200.061 62.7287C203.519 60.3367 209.625 55.5774 211.289 54.3501C213.812 52.4914 198.999 48.5546 195.678 49.1941C195.233 49.2795 190.644 51.5693 185.672 54.2231C187.04 59.8033 193.209 63.5109 200.061 62.7287Z" fill="white"/>
<path opacity="0.49" d="M172.62 62.4015C172.664 62.4363 172.717 62.4727 172.776 62.5111C177.622 59.0981 193.654 50.8618 194.505 50.6985C197.415 50.1382 209.156 53.0936 210.311 55.0849C210.714 54.7788 211.047 54.528 211.287 54.3518C213.81 52.493 198.996 48.5563 195.676 49.1958C194.646 49.392 171.365 61.4243 172.62 62.4015Z" fill="white"/>
<path d="M199.268 63.7007C201.963 64.0151 212.339 70.6066 209.958 71.4174C207.879 72.1253 198.343 75.6851 197.258 75.6063C196.171 75.5282 176.638 73.2069 175.946 72.6511C175.254 72.0953 179.158 69.2696 178.434 68.2195C177.71 67.1706 198.433 63.6042 199.268 63.7007Z" fill="url(#paint44_linear_18058_5557)"/>
<path opacity="0.2" d="M199.336 75.1074C202.56 74.1158 208.383 71.9541 209.953 71.4186C212.334 70.6078 201.958 64.0163 199.264 63.7018C198.903 63.6596 194.839 64.2995 190.393 65.1265C190.086 69.7207 193.906 74.0483 199.336 75.1074Z" fill="white"/>
<path opacity="0.49" d="M178.433 68.2209C178.459 68.2578 178.49 68.2991 178.525 68.3433C183.06 66.9073 197.316 64.4885 198.007 64.5694C200.369 64.8444 208.632 69.9443 209.032 71.7444C209.416 71.6076 209.73 71.4965 209.957 71.4201C212.338 70.6093 201.962 64.0178 199.268 63.7033C198.433 63.6045 177.709 67.1708 178.433 68.2209Z" fill="white"/>
<path d="M195.575 75.5756C197.666 76.6005 204.178 84.8993 202.017 84.8747C200.131 84.854 191.391 85.0087 190.534 84.6334C189.677 84.2598 171.248 78.2295 170.846 77.5829C170.444 76.9352 170.176 71.9915 176.841 72.9019C177.928 73.0501 194.926 75.2571 195.575 75.5756Z" fill="url(#paint45_linear_18058_5557)"/>
<path opacity="0.2" d="M192.364 84.8229C195.259 84.9413 200.594 84.8581 202.018 84.8733C204.179 84.8979 197.667 76.599 195.576 75.5741C195.295 75.4367 191.822 74.7931 187.986 74.1905C186.419 77.8221 188.271 82.4133 192.364 84.8229Z" fill="white"/>
<path opacity="0.49" d="M177.418 73.2757C177.427 73.3126 177.442 73.3552 177.458 73.401C181.541 73.5351 193.777 75.6537 194.313 75.916C196.147 76.814 201.375 83.302 201.183 84.8728C201.533 84.8721 201.82 84.8723 202.025 84.8739C204.185 84.8985 197.674 76.5996 195.583 75.5748C194.932 75.2571 177.132 72.2189 177.418 73.2757Z" fill="white"/>
<path d="M189.759 84.186C191.503 85.488 196.046 94.2339 194.067 93.8379C192.338 93.4926 184.284 92.1245 183.561 91.6329C182.838 91.1412 169.13 82.1105 168.873 81.4458C168.616 80.7823 169.789 76.688 173.059 78.3094C173.976 78.7649 189.219 83.7816 189.759 84.186Z" fill="url(#paint46_linear_18058_5557)"/>
<path opacity="0.2" d="M185.202 92.1238C187.84 92.7335 192.754 93.5774 194.06 93.8384C196.039 94.2344 191.496 85.4898 189.752 84.1865C189.519 84.0121 186.439 82.82 183.019 81.6048C180.953 84.6673 181.859 89.2041 185.202 92.1238Z" fill="white"/>
<path opacity="0.49" d="M173.47 78.9357C173.473 78.9718 173.478 79.0124 173.485 79.0582C177.212 79.8868 188.085 83.9461 188.532 84.2804C190.061 85.4221 193.739 92.2821 193.291 93.6923C193.612 93.7525 193.876 93.8018 194.064 93.8396C196.043 94.2356 191.5 85.4909 189.757 84.1876C189.215 83.7817 173.392 77.9162 173.47 78.9357Z" fill="white"/>
<path d="M180.496 89.4132C181.596 90.6704 183.611 97.9657 182.185 97.3514C180.941 96.8158 175.108 94.5005 174.643 94.0156C174.179 93.5312 169.79 88.7692 169.703 88.2296C169.616 87.6899 167.325 81.209 167.428 80.4294C167.534 79.6519 180.153 89.0231 180.496 89.4132Z" fill="url(#paint47_linear_18058_5557)"/>
<path opacity="0.2" d="M175.808 94.6475C177.693 95.5271 181.251 96.9462 182.191 97.3513C183.615 97.9652 181.602 90.669 180.501 89.4131C180.354 89.2454 178.23 87.8569 175.856 86.3967C173.81 88.3672 173.764 91.9201 175.808 94.6475Z" fill="white"/>
<path opacity="0.49" d="M167.428 80.4304C167.425 80.4576 167.423 80.4893 167.42 80.525C170.088 81.7431 179.276 88.9667 179.559 89.2883C180.524 90.3899 182.189 96.1318 181.626 97.1189C181.859 97.2146 182.047 97.2946 182.184 97.3532C183.608 97.9671 181.595 90.6709 180.494 89.415C180.152 89.0236 167.533 79.6525 167.428 80.4304Z" fill="white"/>
<path d="M173.578 93.5258C174.026 95.0226 172.897 102.005 171.925 100.93C171.075 99.9906 167.014 95.7577 166.808 95.1651C166.602 94.5725 162.945 82.058 163.081 81.5649C163.218 81.0723 164.263 77.3922 164.655 76.7704C165.047 76.1497 173.439 93.0609 173.578 93.5258Z" fill="url(#paint48_linear_18058_5557)"/>
<path opacity="0.2" d="M167.546 96.1534C168.807 97.6327 171.281 100.222 171.922 100.931C172.895 102.007 174.023 95.0242 173.575 93.5274C173.516 93.3266 172.249 91.3225 170.798 89.159C168.291 90.039 166.869 93.04 167.546 96.1534Z" fill="white"/>
<path opacity="0.49" d="M164.657 76.772C164.643 76.7931 164.629 76.8195 164.613 76.848C166.408 78.9199 172.718 92.672 172.833 93.0561C173.226 94.3671 172.406 99.8948 171.543 100.515C171.703 100.687 171.834 100.829 171.926 100.931C172.898 102.006 174.027 95.0238 173.579 93.527C173.442 93.0613 165.049 76.1501 164.657 76.772Z" fill="white"/>
<path d="M169.73 48.6218C157.534 44.5918 144.477 50.9225 140.566 62.7596C136.654 74.5978 143.367 87.4642 155.563 91.4942C167.756 95.5234 180.815 89.1923 184.728 77.3528C188.639 65.5158 181.924 52.6514 169.73 48.6218Z" fill="url(#paint49_linear_18058_5557)"/>
<path opacity="0.49" d="M155.789 90.5014C143.759 86.5262 137.064 73.9537 140.639 62.2501C140.582 62.4085 140.527 62.5685 140.474 62.7282C136.562 74.5664 143.275 87.4328 155.472 91.4632C167.666 95.4925 180.725 89.1613 184.638 77.3218C184.691 77.161 184.741 77.0005 184.79 76.8397C180.686 88.3683 167.816 94.4758 155.789 90.5014Z" fill="white"/>
<path opacity="0.35" d="M169.73 48.6218C157.534 44.5918 144.477 50.9225 140.566 62.7596C140.479 63.0216 140.405 63.2811 140.331 63.5443C144.336 70.3 151.08 75.8873 159.628 78.7119C168.326 81.5861 177.226 81.0496 184.542 77.8659C184.604 77.6945 184.67 77.5283 184.727 77.3541C188.639 65.5158 181.924 52.6514 169.73 48.6218Z" fill="white"/>
<path opacity="0.49" d="M184.556 62.9078C182.223 56.4342 176.95 51.0073 169.779 48.6376C162.553 46.2497 155.023 47.5014 149.274 51.3787C153.277 56.0209 158.733 59.7674 165.233 61.9153C171.819 64.0902 178.515 64.3093 184.556 62.9078Z" fill="white"/>
<path opacity="0.49" d="M169.323 49.8492C181.305 53.8087 187.989 66.2989 184.507 77.9617C184.581 77.7618 184.659 77.5603 184.727 77.3544C188.638 65.5173 181.923 52.653 169.728 48.6234C157.534 44.5938 144.477 50.9245 140.566 62.7615C140.497 62.9687 140.44 63.1754 140.379 63.3797C144.532 51.9387 157.341 45.8898 169.323 49.8492Z" fill="white"/>
<path d="M166.298 49.052C167.352 49.3123 168.282 50.0535 167.622 50.3302C166.959 50.6072 162.824 51.4599 161.717 49.7222C160.609 47.9816 165.059 48.7453 166.298 49.052Z" fill="white"/>
<path d="M152.557 50.5537C148.447 52.1934 144.197 56.3281 143.298 59.2667C142.4 62.2045 145.473 58.1446 146.827 56.7499C148.182 55.358 153.886 51.6241 157.312 51.0574C160.742 50.4891 158.984 47.9901 152.557 50.5537Z" fill="white"/>
<path d="M167.926 54.0982C158.858 51.1018 149.149 55.8099 146.241 64.6115C143.332 73.4144 148.325 82.9792 157.392 85.9756C166.46 88.972 176.168 84.2648 179.076 75.4619C181.985 66.6603 176.994 57.0947 167.926 54.0982Z" fill="url(#paint50_linear_18058_5557)"/>
<g opacity="0.35">
<path opacity="0.35" d="M157.013 87.0278C147.453 83.8689 142.173 73.7388 145.244 64.4461C148.314 55.1546 158.59 50.1649 168.15 53.3238C177.708 56.4823 182.988 66.6124 179.918 75.9038C176.847 85.1965 166.572 90.1867 157.013 87.0278ZM167.644 54.8543C158.929 51.9744 149.567 56.5052 146.775 64.9535C143.983 73.4029 148.803 82.6186 157.518 85.4985C166.232 88.378 175.593 83.8468 178.384 75.3985C181.176 66.9491 176.358 57.7338 167.644 54.8543Z" fill="white"/>
</g>
<path opacity="0.39" d="M167.929 54.0983C163.115 52.5073 158.118 53.0891 154.056 55.3043C157.86 53.6283 162.319 53.3082 166.636 54.7347C175.701 57.7303 180.694 67.2939 177.786 76.0967C176.421 80.2264 173.562 83.4529 169.974 85.4069C174.165 83.5628 177.556 80.0758 179.081 75.4612C181.988 66.6604 176.997 57.0947 167.929 54.0983Z" fill="#B06518"/>
<path opacity="0.39" d="M149.321 76.0854C152.72 65.7995 161.938 62.5769 171.003 65.5725C174.708 66.7968 177.732 69.1178 179.813 72.0342C180.628 64.3021 175.824 56.7079 167.925 54.0978C158.858 51.1018 149.149 55.8099 146.241 64.6115C144.52 69.8209 145.565 75.293 148.581 79.516C148.705 78.3702 148.945 77.221 149.321 76.0854Z" fill="#B06518"/>
<path opacity="0.49" d="M157.685 85.1054C148.777 82.1618 143.808 72.8749 146.397 64.2031C146.339 64.3542 146.283 64.5017 146.231 64.6564C143.322 73.4605 148.315 83.0241 157.383 86.0205C166.451 89.0169 176.158 84.3109 179.067 75.5068C179.118 75.3521 179.161 75.1985 179.207 75.045C176.116 83.5523 166.594 88.0494 157.685 85.1054Z" fill="white"/>
<path d="M104.492 47.2832C100.595 47.2832 89.7344 57.0969 89.7344 58.1168V88.432V91.8146V107.379C89.7344 108.401 100.595 115.112 104.492 115.112C108.389 115.112 119.249 108.401 119.249 107.379V91.8132V88.4305V58.1168C119.249 57.0954 108.389 47.2832 104.492 47.2832Z" fill="url(#paint51_linear_18058_5557)"/>
<path d="M121.734 60.0693V76.8183V82.7479V105.425C125.773 105.425 136.336 95.6113 136.336 94.5914V80.6923V78.9495V70.9043C136.336 69.883 125.773 60.0693 121.734 60.0693Z" fill="url(#paint52_linear_18058_5557)"/>
<path d="M72.6484 70.9043V76.364V80.6909V94.59C72.6484 95.6113 83.2111 105.424 86.9394 105.424V82.7479V74.2341V60.0693C83.2111 60.0693 72.6484 69.883 72.6484 70.9043Z" fill="url(#paint53_linear_18058_5557)"/>
<path d="M104.484 112.678C108.381 112.678 119.241 105.967 119.241 104.945V107.378C119.241 108.399 108.381 115.11 104.484 115.11C100.587 115.11 89.7266 108.399 89.7266 107.378V104.945C89.7266 105.967 100.587 112.678 104.484 112.678Z" fill="#A2B2E7"/>
<path d="M136.336 92.1592V94.5919C136.336 95.6132 125.773 105.425 121.734 105.425V102.993C125.773 102.993 136.336 93.1791 136.336 92.1592Z" fill="#A2B2E7"/>
<path d="M86.9394 102.993V105.425C83.2111 105.425 72.6484 95.6118 72.6484 94.5919V92.1592C72.6484 93.1791 83.2111 102.993 86.9394 102.993Z" fill="#A2B2E7"/>
<g opacity="0.49">
<path opacity="0.49" d="M104.484 49.7159C108.381 49.7159 119.241 59.5296 119.241 60.5495V58.1168C119.241 57.0969 108.381 47.2832 104.484 47.2832C100.587 47.2832 89.7266 57.0969 89.7266 58.1168V60.5495C89.7266 59.5296 100.587 49.7159 104.484 49.7159Z" fill="white"/>
<g opacity="0.49">
<path opacity="0.49" d="M136.336 73.3366V70.9039C136.336 69.8825 125.773 60.0703 121.734 60.0703V62.503C125.773 62.5016 136.336 72.3152 136.336 73.3366Z" fill="white"/>
<path opacity="0.49" d="M86.9394 62.502V60.0693C83.2111 60.0693 72.6484 69.883 72.6484 70.9029V73.3356C72.6484 72.3157 83.2111 62.502 86.9394 62.502Z" fill="white"/>
</g>
</g>
<path d="M96.5449 53.9609C95.9826 52.2453 64.2718 39.5619 64.2718 39.5619C62.5021 37.6191 63.0772 41.3489 63.6781 46.9628C64.279 52.5767 64.5093 55.168 65.8255 56.2222C67.1417 57.275 92.7722 61.7019 94.6492 62.3233C96.5249 62.9461 97.1071 55.678 96.5449 53.9609Z" fill="url(#paint54_linear_18058_5557)"/>
<path opacity="0.49" d="M96.2364 55.7034C95.6741 53.9878 63.9633 41.3057 63.9633 41.3057C63.5598 40.8629 63.278 40.7172 63.092 40.8201C63.0405 39.1316 63.308 38.5073 64.2709 39.5644C64.2709 39.5644 95.9817 52.2465 96.544 53.9635C96.8816 54.9906 96.8072 58.0061 96.2907 60.1288C96.5096 58.3418 96.4882 56.469 96.2364 55.7034Z" fill="white"/>
<path d="M96.6177 62.9416C95.8137 61.1989 60.9024 51.361 60.9024 51.361C58.7464 49.6768 59.7836 53.6294 61.0526 59.6447C62.3216 65.66 62.8552 68.4499 64.4161 69.2712C65.977 70.0926 93.3114 72.4082 95.4417 72.6139C97.5691 72.8196 97.4217 64.6844 96.6177 62.9416Z" fill="url(#paint55_linear_18058_5557)"/>
<path opacity="0.49" d="M96.4674 64.9349C95.6633 63.1921 60.7521 53.3542 60.7521 53.3542C60.26 52.9699 59.9366 52.8814 59.7421 53.0414C59.5017 51.1986 59.7292 50.4458 60.9009 51.3615C60.9009 51.3615 95.8121 61.2008 96.6162 62.9421C97.0983 63.9849 97.343 67.3161 97.0068 69.7803C97.054 67.7647 96.8265 65.712 96.4674 64.9349Z" fill="white"/>
<path d="M101.382 74.361C100.302 72.6025 61.8143 66.1786 61.8143 66.1786C59.2247 64.8102 60.7942 68.9899 62.8315 75.4266C64.8702 81.8619 65.7543 84.8603 67.5885 85.406C69.4211 85.9502 98.6484 85.7674 101.055 85.4845C103.463 85.2017 102.464 76.1194 101.382 74.361Z" fill="url(#paint56_linear_18058_5557)"/>
<path opacity="0.49" d="M101.426 76.6292C100.346 74.8707 61.8583 68.4468 61.8583 68.4468C61.2674 68.134 60.8954 68.114 60.6937 68.3397C60.2359 66.3327 60.4133 65.4342 61.8211 66.1784C61.8211 66.1784 100.309 72.6023 101.389 74.3607C102.036 75.4135 102.652 79.0876 102.528 81.9302C102.373 79.659 101.908 77.4148 101.426 76.6292Z" fill="white"/>
<path d="M112.409 53.9609C112.971 52.2453 144.682 39.5619 144.682 39.5619C146.452 37.6191 145.876 41.3489 145.276 46.9628C144.675 52.5767 144.444 55.168 143.128 56.2222C141.812 57.275 116.181 61.7019 114.304 62.3233C112.429 62.9461 111.845 55.678 112.409 53.9609Z" fill="url(#paint57_linear_18058_5557)"/>
<path opacity="0.49" d="M112.716 55.7034C113.278 53.9878 144.989 41.3057 144.989 41.3057C145.393 40.8629 145.673 40.7172 145.861 40.8201C145.912 39.1316 145.645 38.5073 144.682 39.5644C144.682 39.5644 112.971 52.2465 112.409 53.9635C112.071 54.9906 112.145 58.0061 112.662 60.1288C112.443 58.3418 112.464 56.469 112.716 55.7034Z" fill="white"/>
<path d="M112.32 62.9416C113.124 61.1989 148.035 51.361 148.035 51.361C150.191 49.6768 149.154 53.6294 147.885 59.6447C146.616 65.66 146.082 68.4499 144.521 69.2712C142.961 70.0926 115.626 72.4082 113.496 72.6139C111.368 72.8196 111.516 64.6844 112.32 62.9416Z" fill="url(#paint58_linear_18058_5557)"/>
<path opacity="0.49" d="M112.468 64.9349C113.272 63.1921 148.184 53.3542 148.184 53.3542C148.676 52.9699 148.999 52.8814 149.194 53.0414C149.434 51.1986 149.207 50.4458 148.035 51.3615C148.035 51.3615 113.124 61.2008 112.32 62.9421C111.837 63.9849 111.593 67.3161 111.929 69.7803C111.882 67.7647 112.109 65.712 112.468 64.9349Z" fill="white"/>
<path d="M107.57 74.361C108.65 72.6025 147.138 66.1786 147.138 66.1786C149.728 64.8102 148.158 68.9899 146.12 75.4266C144.081 81.8619 143.197 84.8603 141.363 85.406C139.53 85.9502 110.303 85.7674 107.896 85.4845C105.49 85.2017 106.49 76.1194 107.57 74.361Z" fill="url(#paint59_linear_18058_5557)"/>
<path opacity="0.49" d="M107.532 76.6292C108.612 74.8707 147.1 68.4468 147.1 68.4468C147.691 68.134 148.063 68.114 148.264 68.3397C148.722 66.3327 148.545 65.4342 147.137 66.1784C147.137 66.1784 108.649 72.6023 107.569 74.3607C106.922 75.4135 106.306 79.0876 106.43 81.9302C106.585 79.659 107.05 77.4148 107.532 76.6292Z" fill="white"/>
<path d="M115.35 44.0848C115.35 44.0848 115.344 44.1076 115.334 44.1448C115.362 44.2905 115.377 44.4405 115.377 44.5933C115.377 45.8932 114.319 46.9474 113.018 46.9474C111.716 46.9474 110.657 45.8932 110.657 44.5933C110.657 43.7962 111.049 43.0948 111.656 42.6677C111.677 42.6449 111.68 42.6306 111.68 42.6306C111.68 42.6306 111.989 41.2349 109.717 37.6895C107.447 34.1425 105.424 33.9111 105.424 33.9111C105.424 33.9111 103.443 34.144 101.173 37.6895C98.9025 41.2349 99.233 42.6306 99.233 42.6306C99.233 42.6306 99.2459 42.6449 99.2674 42.6677C99.8725 43.0934 100.27 43.7962 100.27 44.5933C100.27 45.8932 99.2144 46.9474 97.9125 46.9474C96.6106 46.9474 95.5548 45.8932 95.5548 44.5933C95.5548 44.4405 95.5705 44.2905 95.5991 44.1448C95.5891 44.1076 95.5834 44.0848 95.5834 44.0848C95.5834 44.0848 91.7992 40.655 86.2969 41.3521L92.207 57.281C92.207 57.281 96.137 58.0367 105.424 58.0367C114.361 58.0367 118.727 57.281 118.727 57.281L124.637 41.3521C119.134 40.655 115.35 44.0848 115.35 44.0848Z" fill="url(#paint60_linear_18058_5557)"/>
<g opacity="0.49">
<path opacity="0.49" d="M110.984 45.7801C111.023 47.0472 112.063 48.0628 113.342 48.0628C114.644 48.0628 115.701 47.0086 115.701 45.7087C115.701 45.5558 115.686 45.4059 115.658 45.2601C115.668 45.223 115.674 45.2002 115.674 45.2002C115.674 45.2002 119.136 42.0661 124.251 42.4018L124.64 41.3533C119.138 40.6562 115.354 44.0859 115.354 44.0859C115.354 44.0859 115.348 44.1088 115.338 44.1459C115.367 44.2916 115.381 44.4416 115.381 44.5945C115.381 45.8944 114.324 46.9486 113.022 46.9486C112.152 46.9472 111.395 46.4772 110.984 45.7801Z" fill="white"/>
<path opacity="0.49" d="M99.2699 42.6673C99.3886 42.7515 99.4974 42.8487 99.5989 42.953C99.7363 42.1973 100.176 40.8659 101.496 38.8047C103.766 35.2577 105.747 35.0263 105.747 35.0263C105.747 35.0263 107.77 35.2592 110.04 38.8047C110.87 40.1003 111.353 41.1059 111.635 41.8645C111.496 41.1131 111.056 39.776 109.72 37.6904C107.449 34.1435 105.426 33.9121 105.426 33.9121C105.426 33.9121 103.446 34.145 101.176 37.6904C98.9051 41.2359 99.2356 42.6315 99.2356 42.6315C99.2356 42.6315 99.2484 42.6444 99.2699 42.6673Z" fill="white"/>
<path opacity="0.49" d="M95.5819 44.9354C95.5662 44.8225 95.5547 44.7097 95.5547 44.5925C95.5547 44.4397 95.5705 44.2897 95.5991 44.144C95.5891 44.1068 95.5833 44.084 95.5833 44.084C95.5833 44.084 91.7992 40.6542 86.2969 41.3513L86.7075 42.4569C91.2255 41.9198 94.569 44.1526 95.5819 44.9354Z" fill="white"/>
<path opacity="0.49" d="M98.2363 48.0628C99.5382 48.0628 100.594 47.0085 100.594 45.7086C100.594 45.2758 100.474 44.873 100.269 44.5244C100.269 44.5473 100.274 44.5701 100.274 44.5944C100.274 45.8943 99.2177 46.9485 97.9158 46.9485C97.0474 46.9485 96.292 46.4786 95.8828 45.7815C95.9214 47.0471 96.9587 48.0628 98.2363 48.0628Z" fill="white"/>
</g>
<path d="M104.58 49.1846C90.2838 49.1846 78.6953 60.4353 78.6953 74.3115C78.6953 88.1892 90.2838 99.4427 104.58 99.4427C118.874 99.4427 130.466 88.1906 130.466 74.3115C130.464 60.4353 118.874 49.1846 104.58 49.1846Z" fill="url(#paint61_linear_18058_5557)"/>
<path opacity="0.49" d="M104.463 98.316C90.3611 98.316 78.8943 87.3667 78.5853 73.749C78.581 73.9362 78.5781 74.1247 78.5781 74.3118C78.5781 88.1895 90.1666 99.4431 104.465 99.4431C118.759 99.4431 130.35 88.1909 130.35 74.3118C130.35 74.1233 130.347 73.9362 130.343 73.749C130.032 87.3667 118.564 98.316 104.463 98.316Z" fill="white"/>
<path opacity="0.35" d="M104.58 49.1846C90.2838 49.1846 78.6953 60.4353 78.6953 74.3115C78.6953 74.6186 78.7082 74.9186 78.7211 75.2229C85.3136 80.9639 94.3926 84.5137 104.413 84.5137C114.609 84.5137 123.829 80.8382 130.448 74.9186C130.454 74.7158 130.466 74.5172 130.466 74.3129C130.464 60.4353 118.874 49.1846 104.58 49.1846Z" fill="white"/>
<path opacity="0.49" d="M125.237 59.1054C120.51 53.0786 113.042 49.1846 104.635 49.1846C96.1641 49.1846 88.6431 53.1372 83.9219 59.2425C89.7733 62.7508 96.848 64.805 104.468 64.805C112.188 64.8036 119.342 62.6965 125.237 59.1054Z" fill="white"/>
<path opacity="0.49" d="M104.579 50.6226C118.625 50.6226 130.051 61.489 130.444 75.031C130.453 74.7939 130.464 74.5539 130.464 74.3125C130.464 60.4362 118.874 49.1855 104.579 49.1855C90.2838 49.1855 78.6953 60.4362 78.6953 74.3125C78.6953 74.5553 78.7068 74.7939 78.7139 75.031C79.1073 61.489 90.5313 50.6226 104.579 50.6226Z" fill="white"/>
<path d="M101.098 50.8372C102.302 50.7444 103.544 51.2029 102.943 51.7257C102.339 52.25 98.2663 54.5956 96.4894 53.1457C94.7096 51.6929 99.6812 50.9458 101.098 50.8372Z" fill="white"/>
<path d="M87.0957 57.2255C83.3244 60.3939 80.2771 66.2478 80.3529 69.6676C80.4302 73.0859 82.26 67.722 83.2043 65.775C84.15 63.8308 88.874 57.8926 92.2976 56.097C95.7241 54.2986 92.9929 52.2716 87.0957 57.2255Z" fill="white"/>
<path d="M104.567 55.6035C93.9373 55.6035 85.3203 63.9701 85.3203 74.288C85.3203 84.6073 93.9373 92.9725 104.567 92.9725C115.197 92.9725 123.813 84.6073 123.813 74.288C123.811 63.9701 115.197 55.6035 104.567 55.6035Z" fill="url(#paint62_linear_18058_5557)"/>
<g opacity="0.35">
<path opacity="0.35" d="M104.535 94.2164C93.3286 94.2164 84.2109 85.3541 84.2109 74.4605C84.2109 63.5683 93.3286 54.7061 104.535 54.7061C115.74 54.7061 124.858 63.5683 124.858 74.4605C124.856 85.3541 115.74 94.2164 104.535 94.2164ZM104.535 56.5002C94.3186 56.5002 86.0064 64.5583 86.0064 74.4619C86.0064 84.367 94.3186 92.4236 104.535 92.4236C114.75 92.4236 123.061 84.3656 123.061 74.4619C123.061 64.5568 114.75 56.5002 104.535 56.5002Z" fill="white"/>
</g>
<path opacity="0.39" d="M104.569 55.6035C98.925 55.6035 93.8476 57.9634 90.3281 61.7231C93.7632 58.6233 98.3642 56.7277 103.424 56.7277C114.052 56.7277 122.668 65.0915 122.668 75.4108C122.668 80.2519 120.774 84.6602 117.664 87.9786C121.45 84.5659 123.816 79.6962 123.816 74.2866C123.813 63.9701 115.199 55.6035 104.569 55.6035Z" fill="#B06518"/>
<path opacity="0.39" d="M92.5824 85.3397C92.5824 73.2819 101.199 66.6566 111.826 66.6566C116.17 66.6566 120.176 68.0537 123.393 70.4093C121.555 61.9527 113.825 55.6045 104.566 55.6045C93.9373 55.6045 85.3203 63.9711 85.3203 74.289C85.3203 80.3957 88.3362 85.814 92.9987 89.2237C92.7283 87.9695 92.5824 86.6711 92.5824 85.3397Z" fill="#B06518"/>
<path opacity="0.49" d="M104.567 91.9525C94.1247 91.9525 85.6293 83.8731 85.3375 73.8037C85.3289 73.9837 85.3203 74.1594 85.3203 74.3408C85.3203 84.6616 93.9373 93.0253 104.567 93.0253C115.197 93.0253 123.813 84.6616 123.813 74.3408C123.813 74.1594 123.804 73.9823 123.8 73.8037C123.502 83.8745 115.011 91.9525 104.567 91.9525Z" fill="white"/>
<defs>
<linearGradient id="paint0_linear_18058_5557" x1="38.7857" y1="30.9727" x2="64.9803" y2="110.224" gradientUnits="userSpaceOnUse">
<stop stop-color="#F7E436"/>
<stop offset="1" stop-color="#CE7C1D"/>
</linearGradient>
<linearGradient id="paint1_linear_18058_5557" x1="59.3063" y1="22.8004" x2="85.4551" y2="101.913" gradientUnits="userSpaceOnUse">
<stop stop-color="#F7E436"/>
<stop offset="1" stop-color="#CE7C1D"/>
</linearGradient>
<linearGradient id="paint2_linear_18058_5557" x1="17.3056" y1="36.6844" x2="43.4544" y2="115.797" gradientUnits="userSpaceOnUse">
<stop stop-color="#F7E436"/>
<stop offset="1" stop-color="#CE7C1D"/>
</linearGradient>
<linearGradient id="paint3_linear_18058_5557" x1="50.4256" y1="108.431" x2="75.6022" y2="100.11" gradientUnits="userSpaceOnUse">
<stop stop-color="#F7E436"/>
<stop offset="1" stop-color="#CE7C1D"/>
</linearGradient>
<linearGradient id="paint4_linear_18058_5557" x1="74.5491" y1="89.8241" x2="87.0049" y2="85.7071" gradientUnits="userSpaceOnUse">
<stop stop-color="#F7E436"/>
<stop offset="1" stop-color="#CE7C1D"/>
</linearGradient>
<linearGradient id="paint5_linear_18058_5557" x1="32.6743" y1="103.664" x2="44.8651" y2="99.6345" gradientUnits="userSpaceOnUse">
<stop stop-color="#F7E436"/>
<stop offset="1" stop-color="#CE7C1D"/>
</linearGradient>
<linearGradient id="paint6_linear_18058_5557" x1="41.2876" y1="38.5137" x2="50.2424" y2="65.6063" gradientUnits="userSpaceOnUse">
<stop stop-color="#F7E436"/>
<stop offset="1" stop-color="#CE7C1D"/>
</linearGradient>
<linearGradient id="paint7_linear_18058_5557" x1="78.0676" y1="52.389" x2="63.7732" y2="48.9899" gradientUnits="userSpaceOnUse">
<stop stop-color="#D58D21"/>
<stop offset="1" stop-color="#F7E436"/>
</linearGradient>
<linearGradient id="paint8_linear_18058_5557" x1="60.9932" y1="18.3981" x2="76.5688" y2="66.7364" gradientUnits="userSpaceOnUse">
<stop offset="0.2469"/>
<stop offset="1" stop-color="white"/>
</linearGradient>
<linearGradient id="paint9_linear_18058_5557" x1="57.7336" y1="19.0319" x2="73.7604" y2="68.7706" gradientUnits="userSpaceOnUse">
<stop offset="0.2469" stop-color="#F7E436"/>
<stop offset="1" stop-color="#D58D21"/>
</linearGradient>
<linearGradient id="paint10_linear_18058_5557" x1="80.4431" y1="63.7546" x2="66.9658" y2="53.4983" gradientUnits="userSpaceOnUse">
<stop stop-color="#D58D21"/>
<stop offset="1" stop-color="#F7E436"/>
</linearGradient>
<linearGradient id="paint11_linear_18058_5557" x1="78.2191" y1="26.5964" x2="73.0908" y2="75.4191" gradientUnits="userSpaceOnUse">
<stop offset="0.2469"/>
<stop offset="1" stop-color="white"/>
</linearGradient>
<linearGradient id="paint12_linear_18058_5557" x1="78.2269" y1="26.5964" x2="73.0986" y2="75.4191" gradientUnits="userSpaceOnUse">
<stop offset="0.2469" stop-color="#F7E436"/>
<stop offset="1" stop-color="#D58D21"/>
</linearGradient>
<linearGradient id="paint13_linear_18058_5557" x1="79.1622" y1="75.0725" x2="72.6038" y2="62.9284" gradientUnits="userSpaceOnUse">
<stop stop-color="#D58D21"/>
<stop offset="1" stop-color="#F7E436"/>
</linearGradient>
<linearGradient id="paint14_linear_18058_5557" x1="84.2546" y1="29.282" x2="74.8043" y2="76.782" gradientUnits="userSpaceOnUse">
<stop offset="0.2469"/>
<stop offset="1" stop-color="white"/>
</linearGradient>
<linearGradient id="paint15_linear_18058_5557" x1="84.2546" y1="29.282" x2="74.8043" y2="76.782" gradientUnits="userSpaceOnUse">
<stop offset="0.2469" stop-color="#F7E436"/>
<stop offset="1" stop-color="#D58D21"/>
</linearGradient>
<linearGradient id="paint16_linear_18058_5557" x1="80.1579" y1="82.1957" x2="77.5598" y2="70.9952" gradientUnits="userSpaceOnUse">
<stop stop-color="#D58D21"/>
<stop offset="1" stop-color="#F7E436"/>
</linearGradient>
<linearGradient id="paint17_linear_18058_5557" x1="72.1482" y1="28.3131" x2="76.4145" y2="76.9061" gradientUnits="userSpaceOnUse">
<stop offset="0.2469"/>
<stop offset="1" stop-color="white"/>
</linearGradient>
<linearGradient id="paint18_linear_18058_5557" x1="74.5651" y1="28.1008" x2="78.8314" y2="76.6938" gradientUnits="userSpaceOnUse">
<stop offset="0.2469" stop-color="#F7E436"/>
<stop offset="1" stop-color="#D58D21"/>
</linearGradient>
<linearGradient id="paint19_linear_18058_5557" x1="20.3319" y1="71.4689" x2="29.7849" y2="60.2206" gradientUnits="userSpaceOnUse">
<stop stop-color="#D58D21"/>
<stop offset="1" stop-color="#F7E436"/>
</linearGradient>
<linearGradient id="paint20_linear_18058_5557" x1="13.7901" y1="33.9993" x2="30.0894" y2="82.0984" gradientUnits="userSpaceOnUse">
<stop offset="0.2469"/>
<stop offset="1" stop-color="white"/>
</linearGradient>
<linearGradient id="paint21_linear_18058_5557" x1="16.7875" y1="32.5632" x2="33.5591" y2="82.0559" gradientUnits="userSpaceOnUse">
<stop offset="0.2469" stop-color="#F7E436"/>
<stop offset="1" stop-color="#D58D21"/>
</linearGradient>
<linearGradient id="paint22_linear_18058_5557" x1="25.2307" y1="82.0093" x2="29.9412" y2="65.7416" gradientUnits="userSpaceOnUse">
<stop stop-color="#D58D21"/>
<stop offset="1" stop-color="#F7E436"/>
</linearGradient>
<linearGradient id="paint23_linear_18058_5557" x1="4.87086" y1="50.842" x2="38.0846" y2="86.9916" gradientUnits="userSpaceOnUse">
<stop offset="0.2469"/>
<stop offset="1" stop-color="white"/>
</linearGradient>
<linearGradient id="paint24_linear_18058_5557" x1="4.86304" y1="50.842" x2="38.0768" y2="86.9916" gradientUnits="userSpaceOnUse">
<stop offset="0.2469" stop-color="#F7E436"/>
<stop offset="1" stop-color="#D58D21"/>
</linearGradient>
<linearGradient id="paint25_linear_18058_5557" x1="32.9939" y1="90.3252" x2="31.0232" y2="76.6648" gradientUnits="userSpaceOnUse">
<stop stop-color="#D58D21"/>
<stop offset="1" stop-color="#F7E436"/>
</linearGradient>
<linearGradient id="paint26_linear_18058_5557" x1="1.61736" y1="56.5937" x2="37.5135" y2="89.1055" gradientUnits="userSpaceOnUse">
<stop offset="0.2469"/>
<stop offset="1" stop-color="white"/>
</linearGradient>
<linearGradient id="paint27_linear_18058_5557" x1="1.60955" y1="56.5937" x2="37.5057" y2="89.1055" gradientUnits="userSpaceOnUse">
<stop offset="0.2469" stop-color="#F7E436"/>
<stop offset="1" stop-color="#D58D21"/>
</linearGradient>
<linearGradient id="paint28_linear_18058_5557" x1="36.451" y1="96.6381" x2="31.8625" y2="86.0955" gradientUnits="userSpaceOnUse">
<stop stop-color="#D58D21"/>
<stop offset="1" stop-color="#F7E436"/>
</linearGradient>
<linearGradient id="paint29_linear_18058_5557" x1="10.773" y1="48.5949" x2="36.3058" y2="90.1589" gradientUnits="userSpaceOnUse">
<stop offset="0.2469"/>
<stop offset="1" stop-color="white"/>
</linearGradient>
<linearGradient id="paint30_linear_18058_5557" x1="8.70516" y1="49.8663" x2="34.2379" y2="91.4303" gradientUnits="userSpaceOnUse">
<stop offset="0.2469" stop-color="#F7E436"/>
<stop offset="1" stop-color="#D58D21"/>
</linearGradient>
<linearGradient id="paint31_linear_18058_5557" x1="44.5673" y1="50.2866" x2="61.237" y2="94.5458" gradientUnits="userSpaceOnUse">
<stop stop-color="#F7E436"/>
<stop offset="1" stop-color="#CE7C1D"/>
</linearGradient>
<linearGradient id="paint32_linear_18058_5557" x1="50.1127" y1="63.7803" x2="59.2137" y2="91.3155" gradientUnits="userSpaceOnUse">
<stop stop-color="#CE7C1D"/>
<stop offset="1" stop-color="#F7E436"/>
</linearGradient>
<linearGradient id="paint33_linear_18058_5557" x1="150.416" y1="130.246" x2="165.074" y2="44.1474" gradientUnits="userSpaceOnUse">
<stop stop-color="#BB132C"/>
<stop offset="1" stop-color="#FF87AE"/>
</linearGradient>
<linearGradient id="paint34_linear_18058_5557" x1="170.895" y1="135.505" x2="184.732" y2="54.2352" gradientUnits="userSpaceOnUse">
<stop stop-color="#BB132C"/>
<stop offset="1" stop-color="#FF87AE"/>
</linearGradient>
<linearGradient id="paint35_linear_18058_5557" x1="130.009" y1="123.757" x2="143.844" y2="42.4952" gradientUnits="userSpaceOnUse">
<stop stop-color="#BB132C"/>
<stop offset="1" stop-color="#FF87AE"/>
</linearGradient>
<linearGradient id="paint36_linear_18058_5557" x1="167.324" y1="54.5795" x2="173.352" y2="36.3361" gradientUnits="userSpaceOnUse">
<stop stop-color="#BB132C"/>
<stop offset="1" stop-color="#FF87AE"/>
</linearGradient>
<linearGradient id="paint37_linear_18058_5557" x1="160.26" y1="48.1553" x2="128.157" y2="39.5141" gradientUnits="userSpaceOnUse">
<stop stop-color="#BB132C"/>
<stop offset="1" stop-color="#FF87AE"/>
</linearGradient>
<linearGradient id="paint38_linear_18058_5557" x1="150.308" y1="53.9002" x2="121.193" y2="50.3759" gradientUnits="userSpaceOnUse">
<stop stop-color="#BB132C"/>
<stop offset="1" stop-color="#FF87AE"/>
</linearGradient>
<linearGradient id="paint39_linear_18058_5557" x1="151.278" y1="62.0713" x2="120.696" y2="63.3608" gradientUnits="userSpaceOnUse">
<stop stop-color="#BB132C"/>
<stop offset="1" stop-color="#FF87AE"/>
</linearGradient>
<linearGradient id="paint40_linear_18058_5557" x1="149.12" y1="67.7659" x2="122.467" y2="73.9643" gradientUnits="userSpaceOnUse">
<stop stop-color="#BB132C"/>
<stop offset="1" stop-color="#FF87AE"/>
</linearGradient>
<linearGradient id="paint41_linear_18058_5557" x1="149.923" y1="72.5114" x2="129.959" y2="81.8724" gradientUnits="userSpaceOnUse">
<stop stop-color="#BB132C"/>
<stop offset="1" stop-color="#FF87AE"/>
</linearGradient>
<linearGradient id="paint42_linear_18058_5557" x1="153.232" y1="71.8109" x2="137.238" y2="90.6624" gradientUnits="userSpaceOnUse">
<stop stop-color="#BB132C"/>
<stop offset="1" stop-color="#FF87AE"/>
</linearGradient>
<linearGradient id="paint43_linear_18058_5557" x1="176.073" y1="53.377" x2="207.005" y2="65.5656" gradientUnits="userSpaceOnUse">
<stop stop-color="#BB132C"/>
<stop offset="1" stop-color="#FF87AE"/>
</linearGradient>
<linearGradient id="paint44_linear_18058_5557" x1="180.654" y1="63.9226" x2="206.136" y2="78.44" gradientUnits="userSpaceOnUse">
<stop stop-color="#BB132C"/>
<stop offset="1" stop-color="#FF87AE"/>
</linearGradient>
<linearGradient id="paint45_linear_18058_5557" x1="174.999" y1="69.9027" x2="198.791" y2="89.16" gradientUnits="userSpaceOnUse">
<stop stop-color="#BB132C"/>
<stop offset="1" stop-color="#FF87AE"/>
</linearGradient>
<linearGradient id="paint46_linear_18058_5557" x1="173.349" y1="75.762" x2="191.061" y2="96.6204" gradientUnits="userSpaceOnUse">
<stop stop-color="#BB132C"/>
<stop offset="1" stop-color="#FF87AE"/>
</linearGradient>
<linearGradient id="paint47_linear_18058_5557" x1="169.864" y1="79.0959" x2="180.32" y2="98.5095" gradientUnits="userSpaceOnUse">
<stop stop-color="#BB132C"/>
<stop offset="1" stop-color="#FF87AE"/>
</linearGradient>
<linearGradient id="paint48_linear_18058_5557" x1="167.621" y1="76.5625" x2="169.233" y2="101.232" gradientUnits="userSpaceOnUse">
<stop stop-color="#BB132C"/>
<stop offset="1" stop-color="#FF87AE"/>
</linearGradient>
<linearGradient id="paint49_linear_18058_5557" x1="169.503" y1="46.0345" x2="156.516" y2="91.511" gradientUnits="userSpaceOnUse">
<stop stop-color="#FF87AE"/>
<stop offset="1" stop-color="#BB132C"/>
</linearGradient>
<linearGradient id="paint50_linear_18058_5557" x1="163.582" y1="78.858" x2="160.175" y2="45.9388" gradientUnits="userSpaceOnUse">
<stop stop-color="#E4597B"/>
<stop offset="1" stop-color="#BB132C"/>
</linearGradient>
<linearGradient id="paint51_linear_18058_5557" x1="104.492" y1="18.9052" x2="104.492" y2="117.117" gradientUnits="userSpaceOnUse">
<stop stop-color="#DCD6DC"/>
<stop offset="0.4485" stop-color="#BF7DDC"/>
<stop offset="1" stop-color="#6679DC"/>
</linearGradient>
<linearGradient id="paint52_linear_18058_5557" x1="129.035" y1="22.6332" x2="129.035" y2="115.377" gradientUnits="userSpaceOnUse">
<stop stop-color="#DCD6DC"/>
<stop offset="0.4485" stop-color="#BF7DDC"/>
<stop offset="1" stop-color="#6679DC"/>
</linearGradient>
<linearGradient id="paint53_linear_18058_5557" x1="79.7937" y1="22.6332" x2="79.7937" y2="115.377" gradientUnits="userSpaceOnUse">
<stop stop-color="#DCD6DC"/>
<stop offset="0.4485" stop-color="#BF7DDC"/>
<stop offset="1" stop-color="#6679DC"/>
</linearGradient>
<linearGradient id="paint54_linear_18058_5557" x1="78.8516" y1="34.3215" x2="83.6525" y2="97.1389" gradientUnits="userSpaceOnUse">
<stop stop-color="#DCD6DC"/>
<stop offset="0.4485" stop-color="#BF7DDC"/>
<stop offset="1" stop-color="#6679DC"/>
</linearGradient>
<linearGradient id="paint55_linear_18058_5557" x1="76.5107" y1="34.5" x2="81.3116" y2="97.3176" gradientUnits="userSpaceOnUse">
<stop stop-color="#DCD6DC"/>
<stop offset="0.4485" stop-color="#BF7DDC"/>
<stop offset="1" stop-color="#6679DC"/>
</linearGradient>
<linearGradient id="paint56_linear_18058_5557" x1="78.4888" y1="34.3491" x2="83.2897" y2="97.1667" gradientUnits="userSpaceOnUse">
<stop stop-color="#DCD6DC"/>
<stop offset="0.4485" stop-color="#BF7DDC"/>
<stop offset="1" stop-color="#6679DC"/>
</linearGradient>
<linearGradient id="paint57_linear_18058_5557" x1="127.668" y1="30.5915" x2="132.469" y2="93.4089" gradientUnits="userSpaceOnUse">
<stop stop-color="#DCD6DC"/>
<stop offset="0.4485" stop-color="#BF7DDC"/>
<stop offset="1" stop-color="#6679DC"/>
</linearGradient>
<linearGradient id="paint58_linear_18058_5557" x1="128.273" y1="30.5442" x2="133.074" y2="93.3617" gradientUnits="userSpaceOnUse">
<stop stop-color="#DCD6DC"/>
<stop offset="0.4485" stop-color="#BF7DDC"/>
<stop offset="1" stop-color="#6679DC"/>
</linearGradient>
<linearGradient id="paint59_linear_18058_5557" x1="124.126" y1="30.8622" x2="128.927" y2="93.6797" gradientUnits="userSpaceOnUse">
<stop stop-color="#DCD6DC"/>
<stop offset="0.4485" stop-color="#BF7DDC"/>
<stop offset="1" stop-color="#6679DC"/>
</linearGradient>
<linearGradient id="paint60_linear_18058_5557" x1="104.062" y1="34.0161" x2="109.346" y2="61.7006" gradientUnits="userSpaceOnUse">
<stop stop-color="#DCD6DC"/>
<stop offset="0.4485" stop-color="#BF7DDC"/>
<stop offset="1" stop-color="#6679DC"/>
</linearGradient>
<linearGradient id="paint61_linear_18058_5557" x1="103.437" y1="46.5293" x2="105.594" y2="99.1273" gradientUnits="userSpaceOnUse">
<stop stop-color="#DCD6DC"/>
<stop offset="0.4485" stop-color="#BF7DDC"/>
<stop offset="1" stop-color="#6679DC"/>
</linearGradient>
<linearGradient id="paint62_linear_18058_5557" x1="108.779" y1="88.7801" x2="101.462" y2="63.5352" gradientUnits="userSpaceOnUse">
<stop stop-color="#BF7DDC"/>
<stop offset="1" stop-color="#6679DC"/>
</linearGradient>
<clipPath id="clip0_18058_5557">
<rect width="188.683" height="102.708" fill="white" transform="translate(8.91406)"/>
</clipPath>
</defs>
</svg>
