<svg width="113" height="32" viewBox="0 0 113 32" fill="none" xmlns="http://www.w3.org/2000/svg">
<rect opacity="0.15" width="32" height="32" rx="8" fill="white"/>
<path d="M23.2943 17.0417C23.2943 21.0667 20.0276 24.3333 16.0026 24.3333C11.9776 24.3333 8.71094 21.0667 8.71094 17.0417C8.71094 13.0167 11.9776 9.75 16.0026 9.75C20.0276 9.75 23.2943 13.0167 23.2943 17.0417Z" stroke="white" stroke-width="1.5" stroke-linecap="round" stroke-linejoin="round"/>
<path d="M16 12.6666V16.8333" stroke="white" stroke-width="1.5" stroke-linecap="round" stroke-linejoin="round"/>
<path d="M13.5 7.66663H18.5" stroke="white" stroke-width="1.5" stroke-miterlimit="10" stroke-linecap="round" stroke-linejoin="round"/>
<path d="M42.768 9.96V7.248H55.056V9.96H50.592V24H47.232V9.96H42.768ZM56.1636 17.304C56.1636 13.152 58.8516 10.488 62.2356 10.488C64.3716 10.488 65.8356 11.496 66.6276 12.6V10.704H70.0116V24H66.6276V22.056C65.8356 23.208 64.3236 24.216 62.2116 24.216C58.8516 24.216 56.1636 21.456 56.1636 17.304ZM66.6276 17.352C66.6276 14.832 64.9476 13.44 63.0996 13.44C61.2996 13.44 59.5956 14.784 59.5956 17.304C59.5956 19.824 61.2996 21.264 63.0996 21.264C64.9476 21.264 66.6276 19.872 66.6276 17.352ZM83.1332 20.208C83.1332 22.488 81.1412 24.216 77.9012 24.216C74.5652 24.216 72.2372 22.272 72.0932 19.8H75.4772C75.5972 20.808 76.5332 21.576 77.8772 21.576C79.1972 21.576 79.9172 20.976 79.9172 20.208C79.9172 17.832 72.4052 19.344 72.4052 14.472C72.4052 12.264 74.3732 10.488 77.6612 10.488C80.8772 10.488 82.8212 12.24 83.0132 14.88H79.7972C79.7012 13.848 78.8852 13.152 77.5652 13.152C76.3172 13.152 75.6692 13.656 75.6692 14.424C75.6692 16.848 83.0372 15.336 83.1332 20.208ZM85.4113 24V6.24H88.7713V16.344L93.2353 10.704H97.6033L91.7473 17.376L97.6513 24H93.2833L88.7713 18.336V24H85.4113ZM111.787 17.352C111.787 21.528 108.715 24.216 104.851 24.216C101.011 24.216 98.1069 21.528 98.1069 17.352C98.1069 13.152 101.107 10.488 104.947 10.488C108.787 10.488 111.787 13.152 111.787 17.352ZM101.515 17.352C101.515 19.992 103.051 21.288 104.851 21.288C106.627 21.288 108.331 19.992 108.331 17.352C108.331 14.688 106.675 13.416 104.899 13.416C103.123 13.416 101.515 14.688 101.515 17.352Z" fill="white"/>
</svg>
